<?xml version="1.0" encoding="utf-8"?>
<!-- Generator: Adobe Illustrator 13.0.2, SVG Export Plug-In -->
<!DOCTYPE svg PUBLIC "-//W3C//DTD SVG 1.1//EN" "http://www.w3.org/Graphics/SVG/1.1/DTD/svg11.dtd" [ <!ENTITY ns_flows "http://ns.adobe.com/Flows/1.0/"> ]>
<svg version="1.1" xmlns="http://www.w3.org/2000/svg" xmlns:xlink="http://www.w3.org/1999/xlink" xmlns:a="http://ns.adobe.com/AdobeSVGViewerExtensions/3.0/" x="0px" y="0px" viewBox="227.5 -73.462 960 540" enable-background="new 227.5 -73.462 960 540" xml:space="preserve">
<title>He was a good little monkey, and always curious</title>
<linearGradient id="SVGID_1_" gradientUnits="userSpaceOnUse" x1="821.2168" y1="729.0786" x2="674.3331" y2="139.9604"><stop offset="0" style="stop-color:#000000"/><stop offset="1" style="stop-color:#FFFFFF"/></linearGradient>
<path fill="url(#SVGID_1_)" d="M1423,579.038v-576l-2-1c-24.315,0.035-46.544-4.758-68.052,5.972c-7.255,3.619-14.468,8.479-19.948,13.028l-2,6c-10.51,12.062-30.092,10.796-44.306,10.929c-44.623,0.415-75.223,33.512-114.643,46.071c-9.919,3.16-30.363,1.948-37.052,9c-1.991,2.1-6.45,15.847-9,18c-8.417,7.109-17.896-2.186-28.819,1.126c-10.388,3.149-20.921,10.184-24.442,21.886c-17.197-1.722-58.236,21.626-70.521,1.857c-10.749,7.547-30.673,6.893-42.901,4.965c-5.93-0.935-17.034-9.274-21.674-9.186c-10.48,0.199-24.985,18.704-34.241,24.021c-6.918-12.784-20.981-28.675-34.013-35.397c-12.135,16.471-26.653,29.843-40.633,44.072c-8.753,8.91-15.938,20.185-24.862,29.371c-9.591-1.664-10.227-20.663-19.501-25.034c-13.588,4.339,0.563-11.884-22.739-3.681c-16.096,5.667-32.156,31.051-49.641,31.848c-9.872,0.45-18.566-6.631-26.963-11.204c-2.857-1.556-3.97-2.797-5.205-5.571c-3.412,2.46-27.476,35.396-30.489,22.029c-8.253,2.04-11.787,13.232-18.617,17.89c-0.562-0.878-0.728-1.823-0.5-2.836c-29.942,24.396-54.96,59.622-93.849,70.311c-4.088,1.124-6.299,1.105-10.805,2.915c-11.566,4.645-24.43,13.858-34.581,20.71c-9.607,6.484-25.966,25.803-36.236,27.083c-6.823-14.731-8.679-39.275-19.958-50.957c-5.657,2.17-11.248,4.145-16.733,6.208c-10.104,3.801-20.019,7.787-29.935,12.105c-10.435,4.547-20.777,9.296-31.026,14.248c-7.758,1.168-8.373-0.142-16.97-2.053c-19.485-4.329-39.428-0.476-58.814-3.678c-5.714-0.943-10.094-5.354-15.329-6.048l-36.722,8.797c-20.04-4.674-37.981-6.042-57.133-14.104c-13.833-5.823-28.954-15.345-43.416-17.74c-44.202-7.324-86.295,17.139-124.116,35.433L1,327.038v252"/>
<path fill="none" stroke="#798487" stroke-width="2" d="M1423,579.038v-576l-2-1c-24.315,0.035-46.544-4.758-68.052,5.972c-7.255,3.619-14.468,8.479-19.948,13.028l-2,6c-10.51,12.062-30.092,10.796-44.306,10.929c-44.623,0.415-75.223,33.512-114.643,46.071c-9.919,3.16-30.363,1.948-37.052,9c-1.991,2.1-6.45,15.847-9,18c-8.417,7.109-17.896-2.186-28.819,1.126c-10.388,3.149-20.921,10.184-24.442,21.886c-17.197-1.722-58.236,21.626-70.521,1.857c-10.749,7.547-30.673,6.893-42.901,4.965c-5.93-0.935-17.034-9.274-21.674-9.186c-10.48,0.199-24.985,18.704-34.241,24.021c-6.918-12.784-20.981-28.675-34.013-35.397c-12.135,16.471-26.653,29.843-40.633,44.072c-8.753,8.91-15.938,20.185-24.862,29.371c-9.591-1.664-10.227-20.663-19.501-25.034c-13.588,4.339,0.563-11.884-22.739-3.681c-16.096,5.667-32.156,31.051-49.641,31.848c-9.872,0.45-18.566-6.631-26.963-11.204c-2.857-1.556-3.97-2.797-5.205-5.571c-3.412,2.46-27.476,35.396-30.489,22.029c-8.253,2.04-11.787,13.232-18.617,17.89c-0.562-0.878-0.728-1.823-0.5-2.836c-29.942,24.396-54.96,59.622-93.849,70.311c-4.088,1.124-6.299,1.105-10.805,2.915c-11.566,4.645-24.43,13.858-34.581,20.71c-9.607,6.484-25.966,25.803-36.236,27.083c-6.823-14.731-8.679-39.275-19.958-50.957c-5.657,2.17-11.248,4.145-16.733,6.208c-10.104,3.801-20.019,7.787-29.935,12.105c-10.435,4.547-20.777,9.296-31.026,14.248c-7.758,1.168-8.373-0.142-16.97-2.053c-19.485-4.329-39.428-0.476-58.814-3.678c-5.714-0.943-10.094-5.354-15.329-6.048l-36.722,8.797c-20.04-4.674-37.981-6.042-57.133-14.104c-13.833-5.823-28.954-15.345-43.416-17.74c-44.202-7.324-86.295,17.139-124.116,35.433L1,327.038v252"/>
<linearGradient id="SVGID_2_" gradientUnits="userSpaceOnUse" x1="1423" y1="290.019" x2="0.9995" y2="290.0189"><stop offset="0" style="stop-color:#7D7DDB"/><stop offset="1" style="stop-color:#86EBEB"/></linearGradient>
<path opacity="0.14" fill="url(#SVGID_2_)" d="M1423,579.038v-576l-2-1c-24.315,0.035-46.544-4.758-68.052,5.972c-7.255,3.619-14.468,8.479-19.948,13.028l-2,6c-10.51,12.062-30.092,10.796-44.306,10.929c-44.623,0.415-75.223,33.512-114.643,46.071c-9.919,3.16-30.363,1.948-37.052,9c-1.991,2.1-6.45,15.847-9,18c-8.417,7.109-17.896-2.186-28.819,1.126c-10.388,3.149-20.921,10.184-24.442,21.886c-17.197-1.722-58.236,21.626-70.521,1.857c-10.749,7.547-30.673,6.893-42.901,4.965c-5.93-0.935-17.034-9.274-21.674-9.186c-10.48,0.199-24.985,18.704-34.241,24.021c-6.918-12.784-20.981-28.675-34.013-35.397c-12.135,16.471-26.653,29.843-40.633,44.072c-8.753,8.91-15.938,20.185-24.862,29.371c-9.591-1.664-10.227-20.663-19.501-25.034c-13.588,4.339,0.563-11.884-22.739-3.681c-16.096,5.667-32.156,31.051-49.641,31.848c-9.872,0.45-18.566-6.631-26.963-11.204c-2.857-1.556-3.97-2.797-5.205-5.571c-3.412,2.46-27.476,35.396-30.489,22.029c-8.253,2.04-11.787,13.232-18.617,17.89c-0.562-0.878-0.728-1.823-0.5-2.836c-29.942,24.396-54.96,59.622-93.849,70.311c-4.088,1.124-6.299,1.105-10.805,2.915c-11.566,4.645-24.43,13.858-34.581,20.71c-9.607,6.484-25.966,25.803-36.236,27.083c-6.823-14.731-8.679-39.275-19.958-50.957c-5.657,2.17-11.248,4.145-16.733,6.208c-10.104,3.801-20.019,7.787-29.935,12.105c-10.435,4.547-20.777,9.296-31.026,14.248c-7.758,1.168-8.373-0.142-16.97-2.053c-19.485-4.329-39.428-0.476-58.814-3.678c-5.714-0.943-10.094-5.354-15.329-6.048l-36.722,8.797c-20.04-4.674-37.981-6.042-57.133-14.104c-13.833-5.823-28.954-15.345-43.416-17.74c-44.202-7.324-86.295,17.139-124.116,35.433L1,327.038v252"/>
<linearGradient id="SVGID_3_" gradientUnits="userSpaceOnUse" x1="760.1611" y1="158.4502" x2="780.8193" y2="158.4502"><stop offset="0" style="stop-color:#18DBED"/><stop offset="1" style="stop-color:#D6EBEA"/></linearGradient>
<path fill="url(#SVGID_3_)" stroke="#000000" stroke-width="0.5" d="M770.49,149.447c-5.705,0-10.329,7.166-10.329,16.006c0,1.105,4.624,2,10.329,2s10.329-0.896,10.329-2C780.819,156.613,776.195,149.447,770.49,149.447z"/>
<linearGradient id="SVGID_4_" gradientUnits="userSpaceOnUse" x1="752.127" y1="160.229" x2="772.7861" y2="160.229"><stop offset="0" style="stop-color:#ED9818"/><stop offset="1" style="stop-color:#EBD6D6"/></linearGradient>
<path fill="url(#SVGID_4_)" stroke="#000000" stroke-width="0.5" d="M762.457,151.225c-5.705,0-10.33,7.166-10.33,16.006c0,1.105,4.625,2.001,10.33,2.001c5.704,0,10.329-0.896,10.329-2.001C772.786,158.391,768.161,151.225,762.457,151.225z"/>
<linearGradient id="SVGID_5_" gradientUnits="userSpaceOnUse" x1="1140.8418" y1="81.6445" x2="1163.3076" y2="81.6445"><stop offset="0" style="stop-color:#E9ED18"/><stop offset="1" style="stop-color:#ACBDB1"/></linearGradient>
<path fill="url(#SVGID_5_)" stroke="#000000" stroke-width="0.5" d="M1152.074,73.239c-6.204,0-11.232,6.689-11.232,14.942c0,1.032,5.028,1.868,11.232,1.868c6.203,0,11.233-0.836,11.233-1.868C1163.308,79.929,1158.277,73.239,1152.074,73.239z"/>
<linearGradient id="SVGID_6_" gradientUnits="userSpaceOnUse" x1="258.1475" y1="303.3286" x2="278.0361" y2="303.3286"><stop offset="0" style="stop-color:#18DBED"/><stop offset="1" style="stop-color:#D6EBEA"/></linearGradient>
<path fill="url(#SVGID_6_)" stroke="#000000" stroke-width="0.5" d="M258.147,311.608c0-9.146,4.452-16.558,9.945-16.558c5.492,0,9.944,7.412,9.944,16.558"/>
<linearGradient id="SVGID_7_" gradientUnits="userSpaceOnUse" x1="247.1523" y1="303.9038" x2="268.9097" y2="303.9038"><stop offset="0" style="stop-color:#ED9818"/><stop offset="1" style="stop-color:#EBD6D6"/></linearGradient>
<path fill="url(#SVGID_7_)" stroke="#000000" stroke-width="0.5" d="M247.152,311.477c0-8.364,4.871-15.146,10.879-15.146c6.008,0,10.878,6.782,10.878,15.146"/>
<linearGradient id="SVGID_8_" gradientUnits="userSpaceOnUse" x1="246.4238" y1="308.3638" x2="266.9443" y2="308.3638"><stop offset="0" style="stop-color:#ED1818"/><stop offset="1" style="stop-color:#E8D6EB"/></linearGradient>
<path fill="url(#SVGID_8_)" stroke="#000000" stroke-width="0.5" d="M256.684,299.318c-5.667,0-10.26,7.199-10.26,16.081c0,1.109,4.593,2.011,10.26,2.011c5.667,0,10.26-0.901,10.26-2.011C266.944,306.517,262.351,299.318,256.684,299.318z"/>
<linearGradient id="SVGID_9_" gradientUnits="userSpaceOnUse" x1="262.2935" y1="308.5757" x2="283.249" y2="308.5757"><stop offset="0" style="stop-color:#E9ED18"/><stop offset="1" style="stop-color:#D6EBDD"/></linearGradient>
<path fill="url(#SVGID_9_)" stroke="#000000" stroke-width="0.5" d="M283.249,315.348c0-8.688-4.691-15.729-10.478-15.729c-5.787,0-10.478,7.042-10.478,15.729h0.068c-0.042,0.072-0.068,0.145-0.068,0.219c0,1.085,4.69,1.966,10.478,1.966c5.787,0,10.478-0.881,10.478-1.966c0-0.074-0.026-0.146-0.068-0.219H283.249z"/>
<linearGradient id="SVGID_10_" gradientUnits="userSpaceOnUse" x1="256.0244" y1="311.3774" x2="277.9849" y2="311.3774"><stop offset="0" style="stop-color:#ED18A2"/><stop offset="1" style="stop-color:#E1D6EB"/></linearGradient>
<path fill="url(#SVGID_10_)" stroke="#000000" stroke-width="0.5" d="M267.005,302.927c-6.064,0-10.98,6.726-10.98,15.023c0,1.037,4.916,1.878,10.98,1.878c6.064,0,10.98-0.841,10.98-1.878C277.985,309.653,273.069,302.927,267.005,302.927z"/>
<text transform="matrix(1 0 0 1 235.1504 336.0376)" font-family="'Helvetica'" font-size="12">base camp</text>
<text transform="matrix(1 0 0 1 746.8242 138.0376)" font-family="'Helvetica'" font-size="12">camp a</text>
<text transform="matrix(1 0 0 1 1130.3242 58.0376)" font-family="'Helvetica'" font-size="12">camp b</text>
<line fill="none" stroke="#000000" stroke-width="2" stroke-linecap="round" stroke-linejoin="round" x1="266.5" y1="306.788" x2="770.5" y2="306.788"/>
<polyline fill="none" stroke="#000000" stroke-width="2" stroke-linecap="round" stroke-linejoin="round" points="734.5,297.788 770.5,306.788 734.5,315.788"/>
<line fill="none" stroke="#000000" stroke-width="2" stroke-linecap="round" stroke-linejoin="round" x1="770.5" y1="162.788" x2="1148.5" y2="162.788"/>
<polyline fill="none" stroke="#000000" stroke-width="2" stroke-linecap="round" stroke-linejoin="round" points="1112.5,153.788 1148.5,162.788 1112.5,171.788"/>
<line fill="none" stroke="#000000" stroke-width="2" stroke-linecap="round" stroke-linejoin="round" x1="1148.5" y1="162.788" x2="1148.5" y2="86.288"/>
<polyline fill="none" stroke="#000000" stroke-width="2" stroke-linecap="round" stroke-linejoin="round" points="1139.5,122.288 1148.5,86.288 1157.5,122.288"/>
<line fill="none" stroke="#000000" stroke-width="2" stroke-linecap="round" stroke-linejoin="round" x1="770.5" y1="306.788" x2="770.5" y2="162.788"/>
<polyline fill="none" stroke="#000000" stroke-width="2" stroke-linecap="round" stroke-linejoin="round" points="761.5,198.788 770.5,162.788 779.5,198.788"/>
<rect x="266.5" y="86.288" fill="none" stroke="#000000" stroke-linecap="round" stroke-dasharray="12" width="882" height="220.5"/>
<text transform="matrix(1 0 0 1 468.4668 336.0376)" font-family="'Helvetica'" font-size="24">11,200 m</text>
<text transform="matrix(1 0 0 1 916.1406 192.0376)" font-family="'Helvetica'" font-size="24">8,400 m</text>
<text transform="matrix(0 1 -1 0 779.5 191.4282)" font-family="'Helvetica'" font-size="24">3,200 m</text>
<text transform="matrix(0 1 -1 0 1157.5 81.1782)" font-family="'Helvetica'" font-size="24">1,700 m</text>
<text transform="matrix(1 0 0 1 451 291.0376)" fill="#0000FF" font-family="'Helvetica'" font-size="24">14.0°</text>
<path fill="none" stroke="#0000FF" stroke-linecap="round" stroke-linejoin="round" d="M445.536,262.037c3.569,14.328,5.464,29.318,5.464,44.751"/>
<polyline fill="none" stroke="#0000FF" stroke-width="4" stroke-linecap="round" stroke-linejoin="round" points="1111.393,86.288 1148.5,86.288 1115.758,103.75"/>
<line fill="none" stroke="#0000FF" stroke-width="4" stroke-linecap="round" stroke-linejoin="round" x1="266.5" y1="306.788" x2="1148.5" y2="86.288"/>
<text transform="matrix(0.9701 -0.2425 0.2425 0.9701 655.5752 241.5376)" fill="#0000FF" font-family="'Helvetica'" font-size="24">20,200 m</text>
<text transform="matrix(0 1 -1 0 275.5 153.1782)" fill="#0000FF" font-family="'Helvetica'" font-size="24">4,900 m</text>
<text transform="matrix(1 0 0 1 652.9668 70.5376)" fill="#0000FF" font-family="'Helvetica'" font-size="24">19,600 m</text>
<text transform="matrix(0 1 -1 0 239.5 173.0269)" font-family="'Helvetica'" font-size="9">physics.info</text>
</svg>
