<?xml version="1.0" encoding="UTF-8" standalone="no"?>
<!-- Created with Inkscape (http://www.inkscape.org/) -->

<svg
   width="613.06012mm"
   height="396.23132mm"
   viewBox="0 0 613.06012 396.23132"
   version="1.1"
   id="svg2360"
   inkscape:version="1.1.1 (3bf5ae0d25, 2021-09-20)"
   xmlns:inkscape="http://www.inkscape.org/namespaces/inkscape"
   xmlns:sodipodi="http://sodipodi.sourceforge.net/DTD/sodipodi-0.dtd"
   xmlns="http://www.w3.org/2000/svg"
   xmlns:svg="http://www.w3.org/2000/svg">
  <sodipodi:namedview
     id="namedview2362"
     pagecolor="#ffffff"
     bordercolor="#666666"
     borderopacity="1.0"
     inkscape:pageshadow="2"
     inkscape:pageopacity="0.0"
     inkscape:pagecheckerboard="0"
     inkscape:document-units="mm"
     showgrid="false"
     inkscape:zoom="0.77771465"
     inkscape:cx="1719.1395"
     inkscape:cy="1294.1765"
     inkscape:window-width="1920"
     inkscape:window-height="1147"
     inkscape:window-x="1920"
     inkscape:window-y="28"
     inkscape:window-maximized="1"
     inkscape:current-layer="layer1" />
  <defs
     id="defs2357" />
  <g
     inkscape:label="Layer 1"
     inkscape:groupmode="layer"
     id="layer1"
     transform="translate(235.08679,-66.564732)">
    <path
       id="sky4s51rje"
       stroke-width="4.23333"
       stroke="#0074d9"
       d="m -212.01666,223.14263 556.50113,-0.003"
       style="fill:none;stroke-linecap:round;stroke-linejoin:round" />
    <path
       id="sky4s5hwcs"
       stroke-width="4.23333"
       stroke="#7fdbff"
       d="m 26.399374,80.55867 -0.0029,354.85308"
       style="fill:none;stroke-linecap:round;stroke-linejoin:round" />
    <path
       id="sky4s6984h"
       stroke-width="4.23333"
       stroke="#ff851b"
       d="M 27.272499,222.56054 344.00494,91.359279"
       style="fill:none;stroke-linecap:round;stroke-linejoin:round" />
    <path
       id="lky4s87b2p"
       stroke-width="4.23333"
       stroke="#001f3f"
       d="m 26.399374,131.41159 v 0 c 0,0 0.194019,0 0.291042,0 0.09702,0 0.194019,0 0.291042,0 0.291041,0 0.582083,0 0.873125,0 0.396875,0 0.79375,0 1.190625,0 0.48506,0 0.970147,0 1.455208,0 0.299852,0 0.599731,0 0.899583,0 0.388065,0 0.776103,0 1.164167,0 0.299852,0 0.599731,0 0.899583,0 0.388065,0 0.776103,0 1.164167,0 0.388064,0 0.776102,0 1.164167,0 0.202856,0 0.408384,-0.0329 0.608541,0 0.394706,0.0648 0.768191,0.23447 1.164167,0.29104 0.288105,0.0412 0.582083,0 0.873125,0 0.299852,0 0.609256,-0.075 0.899583,0 0.509059,0.13155 0.93853,0.51115 1.455208,0.60854 0.580682,0.10946 1.181815,0 1.772709,0 0.493898,0 0.98978,-0.0444 1.481666,0 0.587719,0.053 1.162897,0.20193 1.74625,0.29104 0.686753,0.10493 1.38221,0.15637 2.06375,0.29104 0.793221,0.15674 1.552337,0.48289 2.354792,0.58209 0.779013,0.0963 1.574562,-0.0858 2.354792,0 0.992028,0.10911 1.950852,0.42788 2.936875,0.58208 0.876617,0.13711 1.780222,0.0963 2.645833,0.29104 0.908817,0.20447 1.737016,0.69511 2.645833,0.89958 0.865611,0.19476 1.779297,0.10041 2.645834,0.29105 0.907044,0.19954 1.741302,0.66254 2.645833,0.87312 0.770308,0.17934 1.588003,0.0972 2.354791,0.29104 0.814626,0.20595 1.564535,0.61407 2.354792,0.89959 0.577056,0.20849 1.168003,0.37689 1.74625,0.58208 0.788961,0.27995 1.559666,0.61124 2.354792,0.87312 0.678894,0.22358 1.39102,0.3406 2.06375,0.58209 0.706305,0.25355 1.403905,0.54216 2.06375,0.89958 0.615129,0.33319 1.130935,0.8313 1.74625,1.16417 0.466725,0.25249 1.007057,0.34478 1.481666,0.58208 0.516784,0.25839 0.983271,0.6073 1.481667,0.89958 0.674687,0.39569 1.326277,0.83828 2.037292,1.16417 0.565388,0.25913 1.206658,0.32438 1.772708,0.58208 0.525859,0.23943 1.008936,0.56738 1.481667,0.89959 0.508264,0.35716 0.908843,0.8686 1.455208,1.16416 0.547026,0.29594 1.207479,0.32264 1.772708,0.58209 0.518292,0.23788 0.957633,0.62095 1.455208,0.89958 0.385445,0.21585 0.829602,0.3275 1.190625,0.58208 0.336392,0.2372 0.523002,0.65675 0.873125,0.87313 0.451406,0.27895 0.997771,0.36433 1.481667,0.58208 0.399309,0.17968 0.753348,0.45702 1.164167,0.60854 0.670586,0.24736 1.41216,0.28832 2.063753,0.58209 0.44219,0.19936 0.78168,0.57478 1.16416,0.87312 0.49959,0.38968 0.96327,0.82635 1.48167,1.19063 0.46284,0.32522 0.99041,0.5507 1.45521,0.87312 0.51609,0.35801 0.98639,0.77788 1.48167,1.16417 0.38668,0.30162 0.77747,0.59796 1.16416,0.89958 0.49528,0.38629 1.01248,0.74658 1.48167,1.16417 0.41463,0.36901 0.74673,0.82478 1.16416,1.19062 0.37013,0.32438 0.80069,0.57288 1.19063,0.87313 0.49218,0.37899 1.01595,0.7249 1.45521,1.16417 0.44802,0.44801 0.80094,0.98208 1.19062,1.48166 0.29835,0.38248 0.53012,0.82116 0.87313,1.16417 0.44802,0.44802 0.98208,0.80095 1.48166,1.19062 0.38249,0.29835 0.77664,0.5814 1.16417,0.87313 0.39741,0.29916 0.79841,0.59364 1.19063,0.89958 0.48982,0.38206 0.98888,0.7538 1.4552,1.16417 0.4167,0.36668 0.7732,0.79833 1.19063,1.16417 0.3688,0.32324 0.76756,0.61113 1.16417,0.89958 0.28289,0.20574 0.60277,0.36015 0.87312,0.58208 0.32298,0.26514 0.6041,0.57764 0.89958,0.87313 0.39249,0.39248 0.74311,0.82894 1.16417,1.19062 0.27093,0.23273 0.6685,0.30975 0.89958,0.58209 0.2807,0.3308 0.33206,0.80959 0.58209,1.16416 0.24082,0.34153 0.61494,0.571 0.87312,0.89959 0.13401,0.17057 0.21048,0.38065 0.29104,0.58208 0.11393,0.28485 0.10346,0.63037 0.29105,0.87312 0.13747,0.17794 0.4223,0.16505 0.60854,0.29105 0.1189,0.0804 0.21304,0.19695 0.29104,0.3175 0.11785,0.18213 0.13764,0.42867 0.29104,0.58208 0.15341,0.1534 0.42868,0.13763 0.58208,0.29104 0.0686,0.0686 -0.0686,0.22244 0,0.29104 0.0686,0.0686 0.22244,-0.0686 0.29105,0 0.0686,0.0686 0.097,0.29104 0,0.29104 -0.13719,0 -0.29105,-0.29104 -0.29105,-0.29104"
       style="fill:none;stroke-linecap:round;stroke-linejoin:round" />
    <path
       id="lky4s8a5e2"
       stroke-width="4.23333"
       stroke="#001f3f"
       d="m 51.084999,152.28721 v 0 c 0,0 0.769276,-0.61881 1.190625,-0.87312 0.560573,-0.33838 1.130432,-0.6771 1.74625,-0.89959 0.760439,-0.27474 1.559772,-0.43468 2.354792,-0.58208 0.777663,-0.14417 1.563899,-0.29104 2.354791,-0.29104 0.694717,0 1.393137,0.10964 2.06375,0.29104 0.418809,0.11329 0.971894,0.19314 1.164167,0.58208 0.261884,0.5297 0.09573,1.18962 0,1.77271 -0.100753,0.61373 -0.246433,1.2491 -0.582083,1.77271 -0.563272,0.87868 -1.353371,1.59014 -2.06375,2.35479 -0.560282,0.60309 -1.185969,1.14316 -1.74625,1.74625 -0.71038,0.76465 -1.486006,1.48556 -2.06375,2.35479 -0.413465,0.62206 -0.718529,1.33297 -0.873125,2.06375 -0.142373,0.67302 -0.112263,1.38507 0,2.06375 0.08525,0.51544 0.263339,1.04127 0.582083,1.45521 0.382376,0.4966 0.895482,0.90866 1.455208,1.19063 0.638334,0.32157 1.379802,0.37454 2.06375,0.58208 0.595154,0.1806 1.150753,0.58208 1.772709,0.58208 0.433863,0 1.164166,-0.58208 1.164166,-0.58208"
       style="fill:none;stroke-linecap:round;stroke-linejoin:round" />
    <path
       id="lky4s8awau"
       stroke-width="4.23333"
       stroke="#001f3f"
       d="m 58.731457,179.32763 v 0 c 0,0 0.582084,-0.58209 0.582084,-0.58209"
       style="fill:none;stroke-linecap:round;stroke-linejoin:round" />
    <path
       id="sky4s9mi2c"
       stroke-width="4.23333"
       stroke="#ffdc00"
       d="M 27.272499,222.2695 -209.62852,124.12769"
       style="fill:none;stroke-linecap:round;stroke-linejoin:round" />
    <path
       id="sky4sa54h8"
       stroke-width="4.23333"
       stroke="#90468b"
       d="M 26.690416,222.56054 -57.851779,426.65457"
       style="fill:none;stroke-linecap:round;stroke-linejoin:round" />
    <path
       id="sky4saadj9"
       stroke-width="4.23333"
       stroke="#001f3f"
       d="m -16.225,204.33075 -16.581871,40.01212"
       style="fill:none;stroke-linecap:round;stroke-linejoin:round" />
    <path
       id="sky4sacgry"
       stroke-width="4.23333"
       stroke="#001f3f"
       d="M -32.391042,244.60033 8.441945,261.51755"
       style="fill:none;stroke-linecap:round;stroke-linejoin:round" />
    <text
       id="tky4sausqp"
       x="37.802917"
       y="197.5045"
       font-size="9.525px"
       fill="#001f3f"
       style="font-family:Arial;stroke-width:0.264583">x</text>
    <text
       id="tky4sawudy"
       x="-6.3825002"
       y="188.50867"
       font-size="9.525px"
       fill="#001f3f"
       style="font-family:Arial;stroke-width:0.264583">x</text>
    <path
       id="lky4sb0pyd"
       stroke-width="4.23333"
       stroke="#001f3f"
       d="m 26.690416,141.70388 v 0 c 0,0 -0.560255,-0.42566 -0.873125,-0.58209 -0.08678,-0.0434 -0.194019,0 -0.291042,0 -0.396875,0 -0.79375,0 -1.190625,0 -0.48506,0 -0.977847,-0.0861 -1.455208,0 -0.612061,0.11039 -1.156864,0.49522 -1.772708,0.58209 -0.77724,0.10961 -1.569853,0 -2.354792,0 -0.784939,0 -1.57181,-0.0552 -2.354792,0 -0.597323,0.0421 -1.180756,0.2006 -1.772708,0.29104 -0.678127,0.10361 -1.372685,0.12113 -2.037291,0.29104 -0.517287,0.13224 -0.964142,0.47723 -1.481667,0.60854 -0.673391,0.17087 -1.3759128,0.19341 -2.0637501,0.29104 -0.6791854,0.0964 -1.3860198,0.0756 -2.0372917,0.29105 -0.5442479,0.18004 -0.9569449,0.64225 -1.4816666,0.87312 -0.3661304,0.16111 -0.7735094,0.20511 -1.1641667,0.29104 -0.4915693,0.10814 -0.981366,0.23601 -1.4816666,0.29104 -0.385736,0.0424 -0.8084344,-0.15507 -1.1641667,0 -0.3887522,0.16944 -0.5128683,0.72557 -0.89958327,0.89959 -0.53813604,0.24217 -1.16990811,0.16425 -1.74624998,0.29104 -0.30781625,0.0677 -0.60028665,0.19227 -0.89958335,0.29104 -0.5826654,0.19227 -1.1635845,0.38981 -1.74625,0.58208 -0.2992966,0.0988 -0.6093354,0.16825 -0.8995833,0.29105 -0.3995737,0.16904 -0.7685087,0.40404 -1.1641666,0.58208 -0.4868863,0.2191 -0.9947804,0.38944 -1.4816667,0.60854 -0.3956579,0.17804 -0.7840133,0.37301 -1.1641666,0.58208 -0.5023115,0.27628 -0.9680046,0.6186 -1.4816667,0.87313 -0.4681271,0.23196 -0.9972941,0.3306 -1.4552081,0.58208 -0.623914,0.34264 -1.171575,0.80942 -1.772709,1.19063 -0.484134,0.30699 -1.012639,0.54353 -1.481666,0.87312 -0.512789,0.36034 -0.991632,0.76885 -1.455208,1.19063 -0.613516,0.55819 -1.119347,1.23528 -1.772709,1.74625 -0.730514,0.57131 -1.635786,0.89596 -2.354791,1.48166 -0.860637,0.7011 -1.597713,1.54297 -2.354792,2.3548 -0.707893,0.75906 -1.305428,1.6188 -2.037292,2.35479 -0.832485,0.83719 -1.782386,1.54956 -2.645833,2.35479 -0.706935,0.65929 -1.353455,1.38163 -2.06375,2.03729 -0.666364,0.6151 -1.360649,1.19997 -2.06375,1.77271 -0.867193,0.70641 -1.756137,1.38589 -2.645833,2.06375 -0.777304,0.59224 -1.58691,1.14186 -2.354792,1.74625 -0.599855,0.47215 -1.187405,0.96163 -1.74625,1.48167 -0.7122,0.66275 -1.346806,1.40612 -2.06375,2.06375 -0.563393,0.51675 -1.207235,0.94072 -1.772708,1.4552 -0.512038,0.46588 -0.965708,0.99216 -1.455208,1.48167 -0.489501,0.48951 -0.992167,0.9657 -1.481667,1.45521 -0.392491,0.39248 -0.771676,0.79814 -1.164167,1.19062 -0.392491,0.39249 -0.773186,0.79833 -1.190625,1.16417 -0.368816,0.32324 -0.817393,0.55282 -1.164166,0.89958 -0.250852,0.25085 -0.408694,0.58002 -0.608542,0.87313 -0.197048,0.289 -0.404498,0.57176 -0.582083,0.87312 -0.114157,0.19373 -0.167614,0.42059 -0.291042,0.60855 -0.266269,0.40544 -0.623559,0.74821 -0.873125,1.16416 -0.04991,0.0832 0,0.19402 0,0.29104 0,0.19402 0,0.38807 0,0.58209 0,0.097 0.04186,0.20351 0,0.29104 -0.06194,0.12951 -0.291042,0.17394 -0.291042,0.3175 0,0.097 0.199869,0.0332 0.291042,0 0.207708,-0.0755 0.582083,-0.3175 0.582083,-0.3175"
       style="fill:none;stroke-linecap:round;stroke-linejoin:round" />
    <path
       id="lky4sc9sm8"
       stroke-width="4.23333"
       stroke="#001f3f"
       d="m 93.709373,268.41283 v 0 c 0,0 0.09702,0.29105 0,0.29105 -0.216931,0 -0.679106,-0.097 -0.582083,-0.29105 0.137187,-0.2744 0.640398,-0.0911 0.873125,-0.29104 0.480616,-0.41283 0.766551,-1.01094 1.190625,-1.48166 0.459158,-0.50967 0.945542,-0.99605 1.455208,-1.45521 0.470721,-0.42408 1.005179,-0.77304 1.481667,-1.19063 0.309536,-0.27127 0.461539,-0.87312 0.873125,-0.87312 0.417883,0 0.587428,0.59531 0.899583,0.87312 0.570227,0.50753 1.181607,0.96793 1.746247,1.48167 0.51205,0.46588 1.0559,0.90937 1.48167,1.45521 0.2717,0.34832 0.58208,0.74885 0.58208,1.19062 0,0.2744 -0.35271,0.43146 -0.58208,0.58209 -0.36925,0.24249 -0.78378,0.40994 -1.19062,0.58208 -0.28255,0.11954 -1.14988,0.15867 -0.87313,0.29104 0.44556,0.2131 0.98901,0.0347 1.48167,0 0.88505,-0.0624 1.79644,-0.0346 2.64583,-0.29104 1.42235,-0.4295 2.76077,-1.10501 4.10104,-1.74625 0.91184,-0.43625 1.80401,-0.92213 2.64583,-1.48167 0.6367,-0.42317 1.23214,-0.91464 1.77271,-1.45521 0.15899,-0.15898 0.41577,-0.79562 0.29104,-0.60854 -0.318,0.47699 -0.72458,0.92798 -0.87312,1.48167 -0.15311,0.57071 -0.17267,1.20758 0,1.77271 0.22855,0.748 0.51186,1.6057 1.16417,2.03729 0.6596,0.43643 1.56919,0.38248 2.35479,0.29104 0.92249,-0.10737 1.78866,-0.51565 2.64583,-0.87312 1.00836,-0.42056 2.027,-0.85043 2.93688,-1.45521 0.58168,-0.38664 0.98777,-0.98777 1.48166,-1.48167 0.38807,-0.38806 0.77962,-0.77264 1.16417,-1.16417 0.10059,-0.10242 0.34761,-0.44947 0.29104,-0.3175 -0.34491,0.80481 -0.80142,1.55784 -1.16417,2.3548 -0.21981,0.48297 -0.43804,0.97096 -0.58208,1.48166 -0.0527,0.18675 -0.13719,0.4449 0,0.58209 0.13719,0.13718 0.41362,0.0962 0.58208,0 0.53936,-0.30819 0.96322,-0.78492 1.45521,-1.16417 0.77814,-0.59981 1.53133,-1.2368 2.35479,-1.77271 0.8472,-0.55136 1.75237,-1.00893 2.64584,-1.48167 0.77396,-0.40949 1.52289,-0.89101 2.35479,-1.16416 0.37706,-0.12383 0.90686,-0.27747 1.19062,0 0.27747,0.2713 0.0612,0.78097 0,1.16416 -0.14274,0.89366 -0.60854,1.74086 -0.60854,2.64584 0,0.81071 0.30628,1.60253 0.60854,2.35479 0.10465,0.26045 0.3042,0.56885 0.58209,0.60854 0.49149,0.0702 1.45521,-0.3175 1.45521,-0.3175"
       style="fill:none;stroke-linecap:round;stroke-linejoin:round" />
    <path
       id="lky4scb7wq"
       stroke-width="4.23333"
       stroke="#001f3f"
       d="m 114.585,250.47408 v 0"
       style="fill:none;stroke-linecap:round;stroke-linejoin:round" />
    <path
       id="lky4scbor3"
       stroke-width="4.23333"
       stroke="#001f3f"
       d="m 153.10833,248.72783 v 0 c 0,0 -2.90131,3.32389 -3.83646,5.29167 -0.95686,2.01348 -1.47873,4.24267 -1.74625,6.45583 -0.22362,1.84997 -0.12877,3.76719 0.29104,5.58271 0.27559,1.19187 1.74625,3.22792 1.74625,3.22792"
       style="fill:none;stroke-linecap:round;stroke-linejoin:round" />
    <path
       id="lky4scc4hs"
       stroke-width="4.23333"
       stroke="#001f3f"
       d="m 160.75479,257.53846 v 0 c 0,0 1.03418,0.27278 1.45521,0.58208 1.45708,1.07037 2.76526,2.33019 4.1275,3.51896 0.99277,0.86635 2.04049,1.68008 2.93687,2.64583 0.48091,0.51814 1.16417,1.77271 1.16417,1.77271"
       style="fill:none;stroke-linecap:round;stroke-linejoin:round" />
    <path
       id="lky4sccejr"
       stroke-width="4.23333"
       stroke="#001f3f"
       d="m 163.10958,266.64013 v 0 c 0,0 0.75319,-0.80047 1.16417,-1.16417 1.35392,-1.19822 2.71999,-2.38419 4.1275,-3.51896 1.14249,-0.92112 2.35275,-1.75493 3.51896,-2.64583 0.88881,-0.679 2.64583,-2.06375 2.64583,-2.06375"
       style="fill:none;stroke-linecap:round;stroke-linejoin:round" />
    <path
       id="lky4sccwab"
       stroke-width="4.23333"
       stroke="#001f3f"
       d="m 176.33875,243.72721 v 0 c 0,0 1.00298,0.0906 1.45521,0.29104 2.2067,0.9783 4.42478,1.96564 6.48229,3.22792 2.27047,1.39292 4.4627,2.94246 6.45583,4.70958 1.45021,1.28574 2.91769,2.6716 3.81,4.39208 0.64027,1.23455 0.79256,2.74903 0.60854,4.1275 -0.31231,2.3395 -1.08167,4.62712 -2.06375,6.77334 -0.61063,1.33448 -1.60536,2.48399 -2.64583,3.51896 -0.65418,0.65071 -2.35479,1.4552 -2.35479,1.4552"
       style="fill:none;stroke-linecap:round;stroke-linejoin:round" />
    <path
       id="sky4scfjrd"
       stroke-width="4.23333"
       stroke="#001f3f"
       d="m 89.608332,278.12304 111.125338,-0.009"
       style="fill:none;stroke-linecap:round;stroke-linejoin:round" />
    <path
       id="lky4sd0rdn"
       stroke-width="4.23333"
       stroke="#001f3f"
       d="m -25.062083,370.72721 v 0 c 0,0 0.406823,0.19156 0.608541,0.29104 0.389202,0.19182 0.746998,0.46302 1.164167,0.58208 0.27985,0.0799 0.612034,0.12859 0.873125,0 0.374862,-0.18468 0.627301,-0.55615 0.899583,-0.87312 0.320675,-0.37333 0.640424,-0.75698 0.873125,-1.19063 0.353166,-0.65828 0.634365,-1.35599 0.873125,-2.06375 0.256408,-0.76015 0.436669,-1.5449 0.608542,-2.32833 0.128296,-0.58499 0.291042,-1.77271 0.291042,-1.77271"
       style="fill:none;stroke-linecap:round;stroke-linejoin:round" />
    <path
       id="lky4sd17fl"
       stroke-width="4.23333"
       stroke="#001f3f"
       d="m -10.642292,363.37179 v 0 c 0,0 -0.429339,0.35401 -0.582083,0.58208 -0.442066,0.65988 -0.835449,1.35335 -1.190625,2.06375 -0.334037,0.66808 -0.728319,1.33086 -0.873125,2.06375 -0.152162,0.76994 -0.280062,1.62164 0,2.3548 0.244766,0.64082 0.917654,1.02896 1.455208,1.4552 0.44921,0.35613 1.481667,0.87313 1.481667,0.87313"
       style="fill:none;stroke-linecap:round;stroke-linejoin:round" />
    <path
       id="lky4sd1m0f"
       stroke-width="4.23333"
       stroke="#001f3f"
       d="m -25.644167,361.30804 v 0 c 0,0 1.174697,-0.25982 1.772709,-0.29104 1.26828,-0.0661 2.54,0 3.81,0 1.763897,0 3.528483,-0.0497 5.291666,0 1.669018,0.0471 3.334306,0.18468 5.0006251,0.29104 1.3764419,0.0878 4.1275,0.29104 4.1275,0.29104"
       style="fill:none;stroke-linecap:round;stroke-linejoin:round" />
    <path
       id="lky4sd2fjt"
       stroke-width="4.23333"
       stroke="#001f3f"
       d="m -28.29,378.66471 v 0 c 0,0 2.152676,-0.0394 3.227917,0 1.57181,0.0577 3.143885,0.14129 4.709583,0.29104 1.478836,0.14155 2.936663,0.47731 4.418542,0.58208 1.266825,0.0897 2.54,0 3.809999,0 0.881936,0 1.771439,0.1151 2.6458338,0 0.6166114,-0.0812 1.7727083,-0.58208 1.7727083,-0.58208"
       style="fill:none;stroke-linecap:round;stroke-linejoin:round" />
    <path
       id="lky4sd2ykq"
       stroke-width="4.23333"
       stroke="#001f3f"
       d="m -18.579792,385.70262 v 0 c 0,0 1.968527,-0.14366 2.936875,0 0.433123,0.0643 0.970704,0.21564 1.164167,0.60855 0.176742,0.35877 -0.06305,0.83555 -0.291042,1.16416 -0.472757,0.68157 -1.049364,1.32292 -1.74625,1.77271 -0.998379,0.64453 -2.191517,0.92366 -3.254375,1.45521 -0.703527,0.35163 -1.351015,0.80618 -2.037291,1.19062 -0.196189,0.10981 -0.809652,0.1905 -0.608542,0.29105 0.535596,0.26775 1.175041,0.254 1.772708,0.29104 0.977107,0.0603 1.957917,0 2.936875,0 0.978959,0 2.936875,0 2.936875,0"
       style="fill:none;stroke-linecap:round;stroke-linejoin:round" />
    <path
       id="lky4sd3lnq"
       stroke-width="4.23333"
       stroke="#001f3f"
       d="m -0.35000033,379.82887 v 0 c 0,0 0.96146937,0.26062 1.45520833,0.29105 1.0827279,0.0669 3.2543749,0 3.2543749,0"
       style="fill:none;stroke-linecap:round;stroke-linejoin:round" />
    <path
       id="lky4sd41lt"
       stroke-width="4.23333"
       stroke="#001f3f"
       d="m 12.297083,378.66471 v 0 c 0,0 0.776473,0.58155 1.164167,0.87312 0.785283,0.59055 1.600649,1.143 2.354791,1.77271 1.011423,0.84455 2.002367,1.71688 2.936875,2.64583 0.541417,0.53817 1.481667,1.74625 1.481667,1.74625"
       style="fill:none;stroke-linecap:round;stroke-linejoin:round" />
    <path
       id="lky4sd4dgs"
       stroke-width="4.23333"
       stroke="#001f3f"
       d="m 12.297083,388.34846 v 0 c 0,0 1.798823,-2.3204 2.645833,-3.51896 0.811795,-1.14856 1.605492,-2.31246 2.328333,-3.51896 0.452041,-0.75459 0.843519,-1.54649 1.190625,-2.35479 0.245428,-0.5715 0.582084,-1.77271 0.582084,-1.77271"
       style="fill:none;stroke-linecap:round;stroke-linejoin:round" />
    <path
       id="lky4sd5cxx"
       stroke-width="4.23333"
       stroke="#001f3f"
       d="m -42.683333,398.93179 v 0 c 0,0 0.605454,0.14102 0.873125,0.29104 0.621059,0.34766 1.128726,0.88741 1.772708,1.19063 1.034817,0.48736 2.176822,0.71305 3.227917,1.16416 1.007607,0.43233 1.956146,0.9914 2.936875,1.48167 0.977201,0.48869 1.949598,0.98743 2.936875,1.45521 0.873945,0.41407 1.754732,0.81465 2.645833,1.19062 0.970283,0.40931 1.921505,0.88504 2.936875,1.16417 0.762582,0.20982 1.593189,0.0778 2.354792,0.29104 1.017217,0.28469 1.940242,0.84058 2.936875,1.19063 0.963559,0.33866 1.94265,0.6395 2.936875,0.87312 1.072779,0.25215 2.172202,0.37386 3.254375,0.58209 0.981762,0.18891 1.95527,0.41883 2.936874,0.60854 1.0734944,0.20743 2.1386275,0.48815 3.2279171,0.58208 1.1686381,0.10081 2.3470658,0.0503 3.5189583,0 1.0881254,-0.0468 2.1692658,-0.19791 3.25437495,-0.29104 1.17265977,-0.10081 2.35230455,-0.13547 3.51895825,-0.29104 1.0853209,-0.14473 2.148205,-0.42651 3.2279167,-0.60854 1.2754768,-0.21485 2.5657968,-0.34026 3.8364582,-0.58209 1.2799485,-0.24368 2.5260565,-0.65167 3.8100005,-0.87312 0.969433,-0.16722 1.97477,-0.0857 2.936874,-0.29104 0.91104,-0.19421 1.739636,-0.68395 2.645834,-0.89959 0.769408,-0.18309 1.569852,-0.19394 2.354791,-0.29104 0.78494,-0.0971 1.572948,-0.17171 2.354792,-0.29104 0.489003,-0.0746 1.002427,-0.0918 1.455208,-0.29104 0.45048,-0.19818 0.749115,-0.65564 1.190625,-0.87313 0.17407,-0.0857 0.391822,0.0381 0.582084,0 0.300831,-0.0601 0.575124,-0.21828 0.873125,-0.29104 0.102817,-0.0265 0.423333,0 0.3175,0 -0.396875,0 -1.190625,0 -1.190625,0"
       style="fill:none;stroke-linecap:round;stroke-linejoin:round" />
    <path
       id="lky4sdbl0x"
       stroke-width="4.23333"
       stroke="#001f3f"
       d="m 51.984582,311.61929 v 0 c 0,0 0,0 0,0 0.291042,-0.19402 0.585708,-0.38272 0.873125,-0.58208 0.691621,-0.47977 1.421527,-0.91109 2.06375,-1.45521 0.632857,-0.53618 1.159748,-1.18621 1.74625,-1.77271 0.295487,-0.29548 0.514721,-0.7103 0.899584,-0.87312 0.357399,-0.15121 0.807481,-0.15285 1.164166,0 0.378328,0.16213 0.56732,0.59764 0.873125,0.87312 0.673762,0.60698 1.420098,1.13387 2.06375,1.77271 0.541814,0.53777 1.114214,1.07715 1.481667,1.74625 0.242279,0.44117 0.497602,1.02267 0.291042,1.48167 -0.257758,0.57277 -0.929217,0.86529 -1.481667,1.16416 -0.539671,0.29194 -1.186736,0.33031 -1.74625,0.58209 -0.330147,0.14856 -0.899583,0.24651 -0.899583,0.60854 0,0.29985 0.60661,0.0638 0.899583,0 1.091353,-0.23786 2.177812,-0.51893 3.227917,-0.89958 2.481976,-0.89972 4.927256,-1.90069 7.355416,-2.93688 1.004861,-0.42881 1.989402,-0.91117 2.936875,-1.45521 0.425291,-0.24421 0.82132,-0.54893 1.164167,-0.89958 0.06781,-0.0694 0.08252,-0.34205 0,-0.29104 -0.533109,0.32956 -1.035712,0.72498 -1.455209,1.19062 -0.47154,0.52343 -0.946811,1.08527 -1.190625,1.74625 -0.17092,0.46337 -0.274902,1.07135 0,1.48167 0.393489,0.58729 1.071113,1.07746 1.772709,1.16417 0.990467,0.12242 1.976649,-0.3101 2.936875,-0.58209 1.100508,-0.31173 2.182892,-0.69913 3.227916,-1.16416 0.725594,-0.3229 1.370807,-0.80259 2.06375,-1.19063 0.189283,-0.10599 0.735489,-0.44445 0.582084,-0.29104 -0.641245,0.64124 -1.450737,1.10442 -2.06375,1.77271 -0.47289,0.51554 -1.013857,1.06301 -1.164167,1.74625 -0.07673,0.34882 0.224922,0.89958 0.582083,0.89958 0.662623,0 1.164776,-0.63598 1.772709,-0.89958 1.651344,-0.71602 3.325045,-1.37999 5.000625,-2.03729 1.06762,-0.41881 2.159476,-0.77394 3.227916,-1.19063 0.695907,-0.27141 1.338792,-0.69323 2.06375,-0.87312 0.4708,-0.11682 1.021345,-0.21694 1.455208,0 0.2744,0.13718 0.345493,0.5712 0.291042,0.87312 -0.148563,0.82386 -0.639207,1.55099 -0.873125,2.35479 -0.252333,0.86707 -0.518557,1.74503 -0.582083,2.64584 -0.0354,0.50207 -0.09514,1.15887 0.291041,1.48166 0.378963,0.31673 1.481667,0 1.481667,0"
       style="fill:none;stroke-linecap:round;stroke-linejoin:round" />
    <path
       id="lky4sdctcy"
       stroke-width="4.23333"
       stroke="#001f3f"
       d="m 81.670832,300.45388 v 0 c 0,0 -1.190625,-0.87313 -1.190625,-0.87313"
       style="fill:none;stroke-linecap:round;stroke-linejoin:round" />
    <path
       id="lky4sddeps"
       stroke-width="4.23333"
       stroke="#001f3f"
       d="m 114.585,292.80742 v 0 c 0,0 0.0676,-0.36066 0,-0.29104 -0.34277,0.35316 -0.58386,0.79245 -0.87313,1.19062 -1.28058,1.7626 -2.92653,3.31211 -3.83646,5.29167 -1.28071,2.78619 -2.26909,5.76741 -2.64583,8.81062 -0.31414,2.53751 0.0597,5.14919 0.60854,7.64646 0.34642,1.57626 1.22476,2.99768 2.03729,4.39208 0.56314,0.96642 2.06375,2.64584 2.06375,2.64584"
       style="fill:none;stroke-linecap:round;stroke-linejoin:round" />
    <path
       id="lky4sdecmv"
       stroke-width="4.23333"
       stroke="#001f3f"
       d="m 127.23208,303.09971 v 0 c 0,0 1.17631,0.3448 1.77271,0.29104 0.52033,-0.0469 1.04762,-0.25527 1.45521,-0.58208 0.60084,-0.48176 1.11948,-1.09308 1.48166,-1.77271 0.43681,-0.8196 0.63519,-1.7481 0.87313,-2.64583 0.15118,-0.57042 0.29104,-1.74625 0.29104,-1.74625"
       style="fill:none;stroke-linecap:round;stroke-linejoin:round" />
    <path
       id="lky4sdeno3"
       stroke-width="4.23333"
       stroke="#001f3f"
       d="m 144.27125,294.28908 v 0 c 0,0 -0.17701,0.39754 -0.29104,0.58209 -0.37164,0.60137 -0.94234,1.10148 -1.16417,1.77271 -0.46837,1.41729 -0.68935,2.91076 -0.87313,4.39208 -0.10858,0.87524 -0.19571,1.78588 0,2.64583 0.10922,0.47988 0.87313,1.19063 0.87313,1.19063"
       style="fill:none;stroke-linecap:round;stroke-linejoin:round" />
    <path
       id="lky4sdf0lr"
       stroke-width="4.23333"
       stroke="#001f3f"
       d="m 125.45937,295.45325 v 0 c 0,0 1.17679,-0.23225 1.77271,-0.29104 1.37258,-0.13541 2.75445,-0.16039 4.1275,-0.29104 3.72515,-0.35447 7.4331,-0.89541 11.16542,-1.16417 1.66256,-0.11972 3.33822,-0.12192 5.00062,0 0.99534,0.073 2.93688,0.58208 2.93688,0.58208"
       style="fill:none;stroke-linecap:round;stroke-linejoin:round" />
    <path
       id="lky4sdfidh"
       stroke-width="4.23333"
       stroke="#001f3f"
       d="m 120.45875,308.97346 v 0 c 0,0 1.34956,0.54282 2.06375,0.60854 3.61471,0.33263 7.24551,0.49228 10.87437,0.58208 4.21442,0.1043 8.43177,-0.0572 12.64709,0 2.93819,0.0399 8.81062,0.29105 8.81062,0.29105"
       style="fill:none;stroke-linecap:round;stroke-linejoin:round" />
    <path
       id="lky4sdfwo8"
       stroke-width="4.23333"
       stroke="#001f3f"
       d="m 134.29646,317.202 v 0 c 0,0 1.81837,-0.3052 2.64583,0 0.41447,0.15288 0.76338,0.78777 0.58208,1.19063 -0.31371,0.69715 -1.11873,1.05925 -1.77271,1.4552 -1.61316,0.97674 -3.34483,1.74324 -5.00062,2.64584 -0.69062,0.37647 -1.48471,0.63087 -2.03729,1.19062 -0.20447,0.20712 -0.27898,0.79018 0,0.87313 0.93837,0.27897 1.95839,-0.0303 2.93687,0 2.1531,0.0667 4.30514,0.16941 6.45584,0.29104 1.28045,0.0724 3.83645,0.29104 3.83645,0.29104"
       style="fill:none;stroke-linecap:round;stroke-linejoin:round" />
    <path
       id="lky4sdge5z"
       stroke-width="4.23333"
       stroke="#001f3f"
       d="m 166.62854,313.10096 v 0 c 0,0 -1.09006,-0.0741 -0.87313,-0.29104 0.2744,-0.2744 0.77611,0 1.16417,0 1.17298,0 2.34598,0 3.51896,0 2.16077,0 6.48229,0 6.48229,0"
       style="fill:none;stroke-linecap:round;stroke-linejoin:round" />
    <path
       id="lky4sdgr9h"
       stroke-width="4.23333"
       stroke="#001f3f"
       d="m 190.44104,311.61929 v 0 c 0,0 -0.63476,-0.18674 -0.58208,0 0.21439,0.76018 0.66331,1.45304 1.16416,2.06375 0.87792,1.07051 1.95792,1.95792 2.93688,2.93688 0.78494,0.78494 1.64012,1.5054 2.35479,2.35479 0.36907,0.43865 0.87312,1.48167 0.87312,1.48167"
       style="fill:none;stroke-linecap:round;stroke-linejoin:round" />
    <path
       id="lky4sdh0gd"
       stroke-width="4.23333"
       stroke="#001f3f"
       d="m 188.95937,321.62054 v 0 c 0,0 0.86209,-1.31529 1.48167,-1.77271 1.66224,-1.22719 3.54735,-2.1205 5.29167,-3.22791 1.49304,-0.9479 2.97508,-1.91508 4.41854,-2.93688 0.91292,-0.64622 2.64583,-2.06375 2.64583,-2.06375"
       style="fill:none;stroke-linecap:round;stroke-linejoin:round" />
    <path
       id="lky4sdhebv"
       stroke-width="4.23333"
       stroke="#001f3f"
       d="m 201.31541,292.80742 v 0 c 0,0 0.74073,0.65217 1.16417,0.89958 1.93564,1.13094 4.03429,1.9853 5.90021,3.22792 2.2656,1.50878 4.56237,3.04509 6.45583,5.00062 1.3801,1.42534 2.42975,3.18429 3.22792,5.00063 0.60121,1.36816 1.27257,2.94494 0.89958,4.39208 -0.57076,2.21456 -2.1726,4.04469 -3.54541,5.87375 -1.58586,2.11291 -3.42697,4.02878 -5.29167,5.90021 -0.58904,0.59118 -2.03729,1.45521 -2.03729,1.45521"
       style="fill:none;stroke-linecap:round;stroke-linejoin:round" />
    <path
       id="lky4sdi7vp"
       stroke-width="4.23333"
       stroke="#001f3f"
       d="m 238.06604,276.05929 v 0 c 0,0 0.19436,-0.008 0.29104,0 1.07667,0.0891 2.14831,0.25146 3.22792,0.29104 1.56879,0.0575 3.14063,-0.0536 4.70958,0 1.27296,0.0435 3.81,0.29105 3.81,0.29105"
       style="fill:none;stroke-linecap:round;stroke-linejoin:round" />
    <path
       id="lky4sdigpw"
       stroke-width="4.23333"
       stroke="#001f3f"
       d="m 234.22958,284.86992 v 0 c 0,0 0.38505,-0.26646 0.60854,-0.29104 0.67503,-0.0743 1.35882,-0.0293 2.03729,0 1.57139,0.0678 4.70959,0.29104 4.70959,0.29104"
       style="fill:none;stroke-linecap:round;stroke-linejoin:round" />
    <path
       id="lky4sditzl"
       stroke-width="4.23333"
       stroke="#001f3f"
       d="m 265.10645,276.64138 v 0 c 0,0 -0.38732,-0.0119 -0.29104,0 0.88056,0.10882 1.75893,0.26595 2.64584,0.29104 2.5478,0.072 5.09825,0.0561 7.64645,0 1.86299,-0.041 5.58271,-0.29104 5.58271,-0.29104"
       style="fill:none;stroke-linecap:round;stroke-linejoin:round" />
    <path
       id="lky4sdj3gx"
       stroke-width="4.23333"
       stroke="#001f3f"
       d="m 264.52437,284.57888 v 0 c 0,0 -0.40867,0.22045 -0.29104,0.29104 0.52612,0.31567 1.13599,0.51845 1.74625,0.58208 1.27193,0.13261 2.55765,0 3.83646,0 1.47285,0 4.41854,0 4.41854,0"
       style="fill:none;stroke-linecap:round;stroke-linejoin:round" />
    <path
       id="lky4sdje7j"
       stroke-width="4.23333"
       stroke="#001f3f"
       d="m 294.50166,278.12304 v 0 c 0,0 0.15468,-0.27604 0.29104,-0.29104 0.78023,-0.0858 1.57049,0.0314 2.3548,0 1.86242,-0.0745 5.5827,-0.3175 5.5827,-0.3175"
       style="fill:none;stroke-linecap:round;stroke-linejoin:round" />
    <path
       id="lky4sdjmnz"
       stroke-width="4.23333"
       stroke="#001f3f"
       d="m 291.85583,284.57888 v 0 c 0,0 0.38854,-0.0138 0.58208,0 1.18285,0.0834 2.36622,0.16631 3.54542,0.29104 1.57303,0.16637 4.70958,0.58208 4.70958,0.58208"
       style="fill:none;stroke-linecap:round;stroke-linejoin:round" />
    <path
       id="lky4sdke7r"
       stroke-width="4.23333"
       stroke="#001f3f"
       d="m 326.25166,246.37304 v 0 c 0,0 0.19402,0 0.29104,0 0.5909,0 1.18568,0.0675 1.77271,0 1.18261,-0.13599 2.34104,-0.43667 3.51896,-0.60854 0.87797,-0.12811 1.76078,-0.22863 2.64583,-0.29104 0.49266,-0.0347 0.99703,-0.0952 1.48167,0 0.0952,0.0188 0.0686,0.22243 0,0.29104 -0.54456,0.54457 -1.18631,0.98243 -1.77271,1.48167 -1.37154,1.16768 -2.69348,2.39493 -4.10104,3.51896 -1.04629,0.83552 -2.15281,1.59358 -3.25437,2.35479 -0.46916,0.32419 -1.055,0.49331 -1.45521,0.89958 -0.21529,0.21855 -0.47512,0.6277 -0.29104,0.87313 0.24,0.31998 0.78163,0.17414 1.16416,0.29104 0.88818,0.27138 1.76477,0.57944 2.64584,0.87312 1.18268,0.39423 2.43035,0.6331 3.54541,1.19063 0.86773,0.43386 1.7608,0.95943 2.32834,1.74625 0.28892,0.40055 0.34922,1.13244 0,1.48166 -0.68133,0.68133 -1.73207,0.85844 -2.64584,1.16417 -1.43848,0.4813 -2.89764,0.93073 -4.39208,1.19063 -1.35885,0.23632 -2.75651,0.14023 -4.1275,0.29104 -0.39759,0.0437 -1.16417,0.29104 -1.16417,0.29104"
       style="fill:none;stroke-linecap:round;stroke-linejoin:round" />
    <path
       id="lky4sdld09"
       stroke-width="4.23333"
       stroke="#001f3f"
       d="m 318.31416,283.12367 v 0 c 0,0 0.97822,-0.27676 1.48167,-0.3175 4.40491,-0.3565 8.81306,-0.70485 13.22917,-0.87313 3.22558,-0.12292 6.45644,-0.0627 9.68375,0 1.76622,0.0343 5.29166,0.29104 5.29166,0.29104"
       style="fill:none;stroke-linecap:round;stroke-linejoin:round" />
    <path
       id="lky4sdlqwo"
       stroke-width="4.23333"
       stroke="#001f3f"
       d="m 326.25166,295.74429 v 0 c 0,0 -0.71927,0.13719 -0.58208,0 0.21693,-0.21693 0.567,-0.27088 0.87312,-0.29104 1.17925,-0.0777 2.37482,-0.16245 3.54542,0 1.01415,0.14073 2.07653,0.34451 2.93688,0.89958 0.58785,0.37926 1.40171,1.08823 1.16416,1.74625 -0.76501,2.1191 -2.23866,3.96817 -3.81,5.58271 -1.99826,2.05322 -4.44719,3.61895 -6.77333,5.29167 -0.82066,0.59013 -1.76924,0.97832 -2.64583,1.48167 -0.49057,0.28167 -1.01349,0.51974 -1.45521,0.87312 -0.0758,0.0606 -0.097,0.29104 0,0.29104 0.88725,0 1.75858,-0.29104 2.64583,-0.29104 1.56406,0 3.12237,0.18939 4.68313,0.29104 3.04302,0.1982 9.12812,0.60854 9.12812,0.60854"
       style="fill:none;stroke-linecap:round;stroke-linejoin:round" />
    <path
       id="lky4se2636"
       stroke-width="4.23333"
       stroke="#001f3f"
       d="m 40.501666,342.78721 v 0 c 0,0 0,0 0,0 0.493898,-0.19394 0.990785,-0.38047 1.481666,-0.58209 0.691013,-0.28363 1.361255,-0.61938 2.06375,-0.87312 0.666565,-0.24077 1.336226,-0.50456 2.037292,-0.60854 0.680455,-0.10107 1.393349,-0.15425 2.06375,0 0.273553,0.063 0.47662,0.34845 0.582083,0.60854 0.301387,0.74348 0.80145,1.54966 0.608542,2.32833 -0.328851,1.32742 -1.285584,2.42094 -2.06375,3.54542 -0.989991,1.4306 -1.995382,2.87337 -3.227917,4.10104 -1.04476,1.04061 -2.320342,1.8251 -3.545416,2.64583 -0.543984,0.36434 -1.214358,0.51779 -1.74625,0.89959 -0.179546,0.12885 -0.440108,0.3982 -0.3175,0.58208 0.17481,0.2622 0.585682,0.263 0.899583,0.29104 0.781817,0.0699 1.571043,-0.0431 2.354792,0 0.982265,0.054 1.95445,0.23972 2.936875,0.29104 0.880745,0.046 2.645833,0 2.645833,0"
       style="fill:none;stroke-linecap:round;stroke-linejoin:round" />
    <path
       id="lky4se2tff"
       stroke-width="4.23333"
       stroke="#001f3f"
       d="m 57.858332,350.43367 v 0 c 0,0 -0.168328,-0.22966 -0.291041,-0.29105 -0.08678,-0.0434 -0.291042,0 -0.291042,0"
       style="fill:none;stroke-linecap:round;stroke-linejoin:round" />
    <path
       id="lky4se3ip1"
       stroke-width="4.23333"
       stroke="#001f3f"
       d="m 67.25104,353.95262 v 0 c 0,0 0.587428,-0.59531 0.899584,-0.87312 0.57023,-0.50747 1.179089,-0.97076 1.74625,-1.48167 0.412379,-0.37147 0.744775,-0.83343 1.190625,-1.16416 0.348482,-0.2585 0.733584,-0.52891 1.164166,-0.58209 0.405474,-0.05 0.832644,0.0942 1.190625,0.29104 0.544301,0.29925 0.974778,0.77047 1.455209,1.16417 0.595603,0.48816 1.329928,0.85143 1.772708,1.48167 0.284401,0.40481 0.397325,0.97208 0.291042,1.45521 -0.105754,0.48074 -0.451776,0.93636 -0.873125,1.19062 -0.611929,0.36936 -1.411261,0.29025 -2.06375,0.58208 -0.449289,0.20082 -0.917628,0.46355 -1.190625,0.87313 -0.112528,0.1688 0.418359,0.0706 0.608541,0 0.610182,-0.22622 1.124771,-0.67998 1.74625,-0.87313 0.953056,-0.29606 2.00078,-0.236 2.936875,-0.58208 0.948108,-0.35057 1.782895,-0.95514 2.645834,-1.48167 0.902123,-0.55033 1.712542,-1.25068 2.645833,-1.74625 0.360839,-0.19155 0.89744,-0.57546 1.190625,-0.29104 0.28702,0.27861 -0.247306,0.7665 -0.291042,1.16417 -0.054,0.4908 -0.29419,1.08506 0,1.48167 0.387641,0.52281 1.096883,0.82999 1.74625,0.87312 0.901065,0.0598 1.804511,-0.254 2.645834,-0.58208 0.941731,-0.36724 1.778608,-0.96229 2.645833,-1.48167 0.606504,-0.36327 1.207929,-0.73898 1.772708,-1.16417 0.224261,-0.1688 0.707628,-0.85963 0.582083,-0.60854 -0.220106,0.44027 -0.572875,0.80063 -0.873124,1.19063 -0.37899,0.49212 -0.88437,0.90064 -1.164167,1.45521 -0.227515,0.45085 -0.502179,1.0115 -0.3175,1.48166 0.109643,0.27914 0.625104,0.12065 0.899583,0 0.640345,-0.28178 1.164696,-0.77523 1.74625,-1.16416 0.882491,-0.59002 1.756066,-1.19354 2.645833,-1.77271 0.777267,-0.50589 1.564429,-0.99642 2.354792,-1.48167 0.48858,-0.29977 0.929931,-0.71755 1.48167,-0.87312 0.20878,-0.059 0.48593,0.0966 0.58208,0.29104 0.31676,0.64082 0.58208,1.34911 0.58208,2.06375 0,0.62203 -0.62944,1.15252 -0.58208,1.77271 0.0563,0.7366 0.51213,1.39276 0.87313,2.03729 0.14017,0.25029 0.32705,0.55324 0.60854,0.60854 0.30387,0.0598 0.87312,-0.3175 0.87312,-0.3175"
       style="fill:none;stroke-linecap:round;stroke-linejoin:round" />
    <path
       id="lky4se4p7b"
       stroke-width="4.23333"
       stroke="#001f3f"
       d="m 83.734582,340.72346 v 0 c 0,0 -0.531707,-0.0796 -0.608542,-0.29104 -0.07414,-0.204 0.291042,-0.58209 0.291042,-0.58209"
       style="fill:none;stroke-linecap:round;stroke-linejoin:round" />
    <path
       id="lky4se547c"
       stroke-width="4.23333"
       stroke="#001f3f"
       d="m 116.93979,336.91346 v 0 c 0,0 -0.91157,0.45905 -1.16417,0.87312 -0.84653,1.38774 -1.59768,2.86121 -2.06375,4.41854 -0.62738,2.0963 -1.19062,4.26773 -1.19062,6.45584 0,1.52532 0.57922,3.02101 1.19062,4.41854 0.39381,0.90011 1.05291,1.68619 1.77271,2.35479 0.67051,0.62283 2.32833,1.45521 2.32833,1.45521"
       style="fill:none;stroke-linecap:round;stroke-linejoin:round" />
    <path
       id="lky4se5hqk"
       stroke-width="4.23333"
       stroke="#001f3f"
       d="m 123.71312,348.07887 v 0 c 0,0 0.61183,0.34952 0.87313,0.58209 0.62423,0.55562 1.16327,1.20094 1.77271,1.77271 0.96094,0.90143 1.92069,1.8071 2.93687,2.64583 0.6531,0.53896 2.06375,1.48167 2.06375,1.48167"
       style="fill:none;stroke-linecap:round;stroke-linejoin:round" />
    <path
       id="lky4se5tcq"
       stroke-width="4.23333"
       stroke="#001f3f"
       d="m 124.00416,358.37117 v 0 c 0,0 0.6376,-0.0945 0.87313,-0.29105 0.95758,-0.7993 1.7122,-1.81874 2.64583,-2.64583 1.61788,-1.43325 3.41072,-2.66329 5.00063,-4.1275 0.86849,-0.79983 1.5916,-1.74493 2.35479,-2.64583 0.31356,-0.37015 0.87312,-1.16417 0.87312,-1.16417"
       style="fill:none;stroke-linecap:round;stroke-linejoin:round" />
    <path
       id="lky4se6ac10"
       stroke-width="4.23333"
       stroke="#001f3f"
       d="m 134.87854,336.91346 v 0 c 0,0 0.36645,-0.31486 0.58208,-0.29104 0.71046,0.0781 1.40925,0.29474 2.06375,0.58208 1.80584,0.79243 3.61289,1.61105 5.29167,2.64583 1.66822,1.02817 3.47305,1.99867 4.70958,3.51896 0.99928,1.22873 1.5394,2.84851 1.74625,4.41854 0.19402,1.47294 -0.152,2.99667 -0.58208,4.41854 -0.55893,1.84785 -1.49138,3.56474 -2.35479,5.29167 -0.31287,0.62574 -1.16417,1.74625 -1.16417,1.74625"
       style="fill:none;stroke-linecap:round;stroke-linejoin:round" />
    <path
       id="lky4se7fkf"
       stroke-width="4.23333"
       stroke="#001f3f"
       d="m 161.33687,346.01512 v 0 c 0,0 0.58209,0 0.87313,0 0.97896,0 1.95791,0 2.93687,0 1.37584,0 4.1275,0 4.1275,0"
       style="fill:none;stroke-linecap:round;stroke-linejoin:round" />
    <path
       id="lky4se7npo"
       stroke-width="4.23333"
       stroke="#001f3f"
       d="m 163.69166,350.72471 v 0 c 0,0 0.19402,0 0.29105,0 0.78494,0 1.56985,0 2.35479,0 1.46402,0 4.39208,0 4.39208,0"
       style="fill:none;stroke-linecap:round;stroke-linejoin:round" />
    <path
       id="lky4se7xbw"
       stroke-width="4.23333"
       stroke="#001f3f"
       d="m 180.14875,346.01512 v 0 c 0,0 -0.18836,-0.53551 0,-0.58208 0.762,-0.18838 1.56985,0 2.35479,0 1.36702,0 2.73402,0 4.10104,0 1.08479,0 3.25438,0 3.25438,0"
       style="fill:none;stroke-linecap:round;stroke-linejoin:round" />
    <path
       id="lky4se863y"
       stroke-width="4.23333"
       stroke="#001f3f"
       d="m 181.31291,350.43367 v 0 c 0,0 0.18116,0.24606 0.3175,0.29104 0.7597,0.25082 1.53625,0.4699 2.32834,0.58208 1.26981,0.17992 3.83646,0.29104 3.83646,0.29104"
       style="fill:none;stroke-linecap:round;stroke-linejoin:round" />
    <path
       id="lky4se8gq9"
       stroke-width="4.23333"
       stroke="#001f3f"
       d="m 200.44229,345.43304 v 0 c 0,0 1.35818,0 2.03729,0 1.18181,0 2.3636,0 3.54542,0 1.27,0 3.81,0 3.81,0"
       style="fill:none;stroke-linecap:round;stroke-linejoin:round" />
    <path
       id="lky4se8oz3"
       stroke-width="4.23333"
       stroke="#001f3f"
       d="m 201.31541,351.59783 v 0 c 0,0 -0.77306,-0.0341 -0.58208,0 0.77962,0.1397 1.56382,0.27676 2.35479,0.3175 1.26831,0.0654 3.81,0 3.81,0"
       style="fill:none;stroke-linecap:round;stroke-linejoin:round" />
    <path
       id="lky4sefhat"
       stroke-width="4.23333"
       stroke="#001f3f"
       d="m 228.35583,337.2045 v 0 c 0,0 0,0 0,0 0.4939,0 0.98777,0 1.48167,0 1.17297,0 2.34706,0.0505 3.51896,0 1.07934,-0.0466 2.14905,-0.23469 3.22791,-0.29104 0.78386,-0.0408 1.57456,-0.0857 2.35479,0 0.13637,0.0159 0.24765,0.16086 0.29104,0.29104 0.0614,0.18415 0.0985,0.41487 0,0.58208 -0.21214,0.3601 -0.59343,0.58923 -0.87312,0.89959 -0.60254,0.66886 -1.19081,1.35043 -1.77271,2.03729 -0.49419,0.5834 -0.91683,1.23005 -1.45521,1.77271 -0.54234,0.54689 -1.22814,0.93715 -1.7727,1.48166 -0.43927,0.43921 -0.78788,0.96097 -1.16417,1.45521 -0.2149,0.28231 -0.60854,0.51832 -0.60854,0.87313 0,0.22886 0.41859,0.18997 0.60854,0.3175 0.40267,0.2704 0.72197,0.67389 1.16417,0.87312 0.65158,0.29369 1.40033,0.31618 2.06375,0.58208 1.30013,0.52123 2.5228,1.22026 3.80999,1.77271 0.76931,0.3302 1.76284,0.28126 2.3548,0.87313 0.34922,0.34925 0.31308,1.09961 0,1.48166 -0.66988,0.8173 -1.65309,1.38404 -2.64584,1.74625 -1.20822,0.4408 -2.53272,0.45826 -3.81,0.60855 -1.2737,0.14975 -2.55397,0.29104 -3.83645,0.29104 -0.21694,0 -0.58209,-0.29104 -0.58209,-0.29104"
       style="fill:none;stroke-linecap:round;stroke-linejoin:round" />
    <path
       id="lky4segcdz"
       stroke-width="4.23333"
       stroke="#001f3f"
       d="m 253.94104,348.952 v 0 c 0,0 -0.87313,-0.29104 -0.87313,-0.29104"
       style="fill:none;stroke-linecap:round;stroke-linejoin:round" />
    <path
       id="lky4segqbm"
       stroke-width="4.23333"
       stroke="#001f3f"
       d="m 275.68979,349.2695 v 0 c 0,0 -2.01533,0.19897 -2.93688,0.58208 -1.46264,0.60802 -2.94425,1.30175 -4.1275,2.35479 -0.65407,0.58209 -1.23687,1.4822 -1.16416,2.3548 0.0575,0.68977 0.85611,1.15861 1.48166,1.4552 1.2863,0.6096 2.68409,1.05463 4.10104,1.19063 1.66259,0.15954 5.00063,-0.3175 5.00063,-0.3175"
       style="fill:none;stroke-linecap:round;stroke-linejoin:round" />
    <path
       id="lky4seh4io"
       stroke-width="4.23333"
       stroke="#001f3f"
       d="m 287.14625,351.91533 v 0 c 0,0 -0.58434,-0.036 -0.87313,0 -0.49085,0.0614 -0.99309,0.11457 -1.45521,0.29104 -0.81798,0.31248 -1.7095,0.5723 -2.35479,1.16417 -0.68342,0.6268 -1.20335,1.47003 -1.48167,2.35479 -0.23555,0.74877 -0.41267,1.68699 0,2.35479 0.48512,0.78502 1.45363,1.25704 2.3548,1.45521 0.96078,0.21141 2.0343,0.10028 2.93687,-0.29104 1.42523,-0.61807 2.84758,-1.4478 3.83646,-2.64583 0.50345,-0.60987 0.36211,-1.56713 0.29104,-2.35479 -0.0393,-0.43604 -0.47008,-0.74877 -0.60854,-1.16417 -0.0454,-0.13626 0.19246,0.2204 0.3175,0.29104 0.56682,0.31962 1.10794,0.74613 1.74625,0.87313 0.86503,0.17198 1.77564,0.14367 2.64583,0 0.91633,-0.15108 1.8133,-0.46144 2.64584,-0.87313 0.75456,-0.37306 1.5372,-0.79851 2.06375,-1.45521 0.31485,-0.39264 0.0949,-1.01811 0.29104,-1.48166 0.10692,-0.25268 0.32668,-0.48181 0.58208,-0.58209 0.27911,-0.10953 0.61484,-0.0939 0.89958,0 0.61802,0.204 1.20526,0.51144 1.74625,0.87313 0.9298,0.62177 1.7584,1.38298 2.64584,2.06375 0.77951,0.59796 1.83824,0.93689 2.35479,1.77271 0.35703,0.57758 0.30186,1.42901 0,2.03729 -0.33933,0.68368 -1.09236,1.0877 -1.74625,1.48166 -0.82534,0.49716 -2.64583,1.16417 -2.64583,1.16417"
       style="fill:none;stroke-linecap:round;stroke-linejoin:round" />
    <path
       id="lky4sei3x5"
       stroke-width="4.23333"
       stroke="#001f3f"
       d="m 323.02375,334.26762 v 0 c 0,0 -1.16954,1.06866 -1.48167,1.77271 -0.87715,1.97856 -1.79134,4.01453 -2.03729,6.16479 -0.34497,3.01573 -0.3732,6.13993 0.29104,9.10167 0.44146,1.9685 1.79422,3.62903 2.93687,5.29167 0.82767,1.20412 1.82002,2.31219 2.93688,3.25437 0.76935,0.64903 2.64583,1.45521 2.64583,1.45521"
       style="fill:none;stroke-linecap:round;stroke-linejoin:round" />
    <path
       id="lky4seihn1"
       stroke-width="4.23333"
       stroke="#001f3f"
       d="m 332.44291,348.07887 v 0 c 0,0 1.30077,1.25519 2.03729,1.77271 1.2277,0.86281 2.55292,1.57771 3.83646,2.35479 0.97428,0.59003 1.96456,1.15306 2.93688,1.74625 0.79171,0.48287 2.35479,1.48167 2.35479,1.48167"
       style="fill:none;stroke-linecap:round;stroke-linejoin:round" />
    <path
       id="lky4seitqc"
       stroke-width="4.23333"
       stroke="#001f3f"
       d="m 334.77125,356.59846 v 0 c 0,0 0.73392,-1.20994 1.19062,-1.74625 1.21378,-1.42558 2.45861,-2.83157 3.81,-4.1275 0.80727,-0.77417 1.78996,-1.34356 2.64583,-2.06375 0.42474,-0.35745 1.19063,-1.16417 1.19063,-1.16417"
       style="fill:none;stroke-linecap:round;stroke-linejoin:round" />
    <path
       id="lky4sej7h2"
       stroke-width="4.23333"
       stroke="#001f3f"
       d="m 342.4177,334.55867 v 0 c 0,0 -0.80383,0.60272 -0.58208,0.87312 0.84431,1.03002 2.15837,1.56104 3.22792,2.35479 1.97321,1.46421 3.98621,2.87788 5.90021,4.41854 1.61633,1.30123 3.39492,2.47439 4.68312,4.10105 1.0092,1.27449 1.46756,2.90618 2.06375,4.41854 0.49109,1.24566 1.19063,2.4974 1.19063,3.83646 0,1.70497 -0.59989,3.37476 -1.19063,4.97416 -0.50313,1.36208 -2.06375,3.83646 -2.06375,3.83646"
       style="fill:none;stroke-linecap:round;stroke-linejoin:round" />
    <path
       id="lky4sexefo"
       stroke-width="4.23333"
       stroke="#001f3f"
       d="m 41.401249,375.72783 v 0 c 0,0 -0.608542,0.20294 -0.608542,0 0,-0.22886 0.404363,-0.21431 0.608542,-0.3175 0.580761,-0.29368 1.10916,-0.7403 1.74625,-0.87312 1.255474,-0.26194 2.555267,-0.23363 3.836458,-0.29104 0.881063,-0.0397 1.769798,-0.10187 2.645834,0 0.803142,0.0934 1.941565,-0.11298 2.354791,0.58208 0.414338,0.69691 -0.255746,1.62481 -0.608541,2.35479 -0.935435,1.93543 -1.909392,3.88514 -3.227917,5.58271 -0.769673,0.99113 -1.902751,1.64412 -2.936875,2.35479 -0.833067,0.57256 -1.743101,1.02685 -2.645833,1.48167 -0.273976,0.13811 -0.702945,0.0357 -0.873125,0.29104 -0.120333,0.18045 0.07826,0.54001 0.291041,0.58208 0.865109,0.17145 1.764877,-0.0415 2.645834,0 1.175676,0.0556 2.34307,0.24024 3.518958,0.29104 1.074976,0.0463 3.227917,0 3.227917,0"
       style="fill:none;stroke-linecap:round;stroke-linejoin:round" />
    <path
       id="lky4sey0510"
       stroke-width="4.23333"
       stroke="#001f3f"
       d="m 64.896249,381.0195 v 0 c 0,0 -0.35179,-0.44794 -0.582083,-0.60854 -0.07959,-0.0556 -0.291042,0 -0.291042,0"
       style="fill:none;stroke-linecap:round;stroke-linejoin:round" />
    <path
       id="lky4seydf1"
       stroke-width="4.23333"
       stroke="#001f3f"
       d="m 77.834374,384.24742 v 0 c 0,0 0,0 0,0 0.396875,-0.0971 0.868786,-0.0394 1.190625,-0.29105 1.090559,-0.85275 2.018374,-1.90103 2.936875,-2.93687 1.430178,-1.6129 2.93452,-3.1877 4.101041,-5.00063 0.81026,-1.25915 1.100667,-2.7895 1.772709,-4.1275 0.319484,-0.63605 0.898525,-1.12368 1.190625,-1.7727 0.119432,-0.26538 -0.205793,-0.66728 0,-0.87313 0.153405,-0.15346 0.619045,0.0773 0.582083,0.29104 -0.195421,1.13004 -0.664792,2.20874 -1.190625,3.22792 -1.049973,2.03517 -2.496794,3.85101 -3.518958,5.90021 -0.845106,1.69412 -1.603164,3.45519 -2.06375,5.29166 -0.238152,0.94959 -0.332635,2.01613 0,2.93688 0.213413,0.59081 0.858308,1.08717 1.481666,1.16417 1.085083,0.13414 2.173738,-0.2921 3.227917,-0.58209 0.720222,-0.19817 2.06375,-0.87312 2.06375,-0.87312"
       style="fill:none;stroke-linecap:round;stroke-linejoin:round" />
    <path
       id="lky4seyvni"
       stroke-width="4.23333"
       stroke="#001f3f"
       d="m 77.543332,376.30992 v 0 c 0,0 -0.776102,0 -0.582083,0 1.375833,0 2.751666,0 4.1275,0 2.151935,0 4.303897,0 6.455833,0 1.763898,0 5.291667,0 5.291667,0"
       style="fill:none;stroke-linecap:round;stroke-linejoin:round" />
    <path
       id="lky4sez6s2"
       stroke-width="4.23333"
       stroke="#001f3f"
       d="m 100.48271,383.05679 v 0 c 0,0 -0.799548,-0.0677 -1.190628,0 -0.790443,0.13679 -1.62134,0.22939 -2.328334,0.60854 -0.794199,0.42572 -1.5036,1.04034 -2.06375,1.74625 -0.546735,0.68898 -0.974301,1.50231 -1.190625,2.35479 -0.100488,0.39609 -0.07371,1.00648 0.291042,1.19063 0.792163,0.39952 1.771121,0.43974 2.645833,0.29104 0.953453,-0.16219 1.790991,-0.73845 2.645834,-1.19062 0.815608,-0.43154 1.666508,-0.84059 2.354788,-1.45521 0.33248,-0.29686 0.46382,-0.76915 0.60855,-1.19063 0.063,-0.18362 0,-0.38814 0,-0.58208 0,-0.0971 0.0196,0.19606 0,0.29104 -0.18363,0.88609 -0.44249,1.75631 -0.60855,2.64583 -0.32805,1.75737 -0.51628,3.53986 -0.87312,5.29167 -0.32279,1.58459 -0.62058,3.18664 -1.164168,4.70958 -0.44151,1.23693 -0.907045,2.53127 -1.772709,3.51896 -0.579728,0.66146 -1.475237,1.19063 -2.354791,1.19063 -0.967132,0 -2.355586,-0.26803 -2.645833,-1.19063 -0.370788,-1.17845 0.352107,-2.58789 1.164166,-3.51896 1.923045,-2.20503 4.395311,-3.87826 6.773335,-5.5827 2.14892,-1.54041 6.77333,-4.1275 6.77333,-4.1275"
       style="fill:none;stroke-linecap:round;stroke-linejoin:round" />
    <path
       id="lky4sezxnj"
       stroke-width="4.23333"
       stroke="#001f3f"
       d="m 123.10458,368.66346 v 0 c 0,0 -2.01303,1.3581 -2.64583,2.35479 -1.45677,2.29447 -2.90039,4.70879 -3.51896,7.35542 -0.49025,2.09761 -0.2767,4.37779 0.29104,6.45583 0.35102,1.28482 2.35479,3.22792 2.35479,3.22792"
       style="fill:none;stroke-linecap:round;stroke-linejoin:round" />
    <path
       id="lky4sf093h"
       stroke-width="4.23333"
       stroke="#001f3f"
       d="m 125.16833,380.41096 v 0 c 0,0 -0.73549,-0.4445 -0.58208,-0.29104 0.54456,0.54451 1.15345,1.02393 1.77271,1.48166 1.2433,0.91917 2.54214,1.7608 3.81,2.64584 0.9811,0.68474 1.89373,1.47769 2.93687,2.06375 0.54224,0.30453 1.77271,0.58208 1.77271,0.58208"
       style="fill:none;stroke-linecap:round;stroke-linejoin:round" />
    <path
       id="lky4sf0j93"
       stroke-width="4.23333"
       stroke="#001f3f"
       d="m 126.06791,389.53908 v 0 c 0,0 1.09697,-1.4388 1.74625,-2.06375 1.70138,-1.6375 3.47676,-3.19907 5.29167,-4.70958 1.1334,-0.94324 2.4052,-1.7108 3.54542,-2.64583 0.53043,-0.43498 1.45521,-1.45521 1.45521,-1.45521"
       style="fill:none;stroke-linecap:round;stroke-linejoin:round" />
    <path
       id="lky4sf0viv"
       stroke-width="4.23333"
       stroke="#001f3f"
       d="m 141.94291,369.53658 v 0 c 0,0 -0.89958,-0.29977 -0.89958,0 0,0.42413 0.5433,0.66966 0.89958,0.89959 1.32073,0.85248 2.73148,1.5568 4.10105,2.32833 1.76135,0.99219 3.69112,1.72826 5.29166,2.96333 0.99343,0.7665 1.98776,1.73699 2.35479,2.93688 0.37256,1.21787 0.15095,2.6154 -0.29104,3.81 -0.56711,1.53273 -1.52159,2.94137 -2.64583,4.1275 -0.69244,0.73051 -2.64583,1.45521 -2.64583,1.45521"
       style="fill:none;stroke-linecap:round;stroke-linejoin:round" />
    <path
       id="lky4sf1m7b"
       stroke-width="4.23333"
       stroke="#001f3f"
       d="m 164.27375,376.01887 v 0 c 0,0 1.56985,0 2.35479,0 1.66687,0 3.33449,-0.05 5.00062,0 1.57216,0.0471 4.70959,0.29105 4.70959,0.29105"
       style="fill:none;stroke-linecap:round;stroke-linejoin:round" />
    <path
       id="lky4sf1uff"
       stroke-width="4.23333"
       stroke="#001f3f"
       d="m 167.50166,382.76575 v 0 c 0,0 -1.16416,-0.38814 -1.16416,0 0,0.40005 0.77345,0.20532 1.16416,0.29104 0.97653,0.21431 1.93921,0.54398 2.93688,0.60854 2.15627,0.13944 6.48229,0 6.48229,0"
       style="fill:none;stroke-linecap:round;stroke-linejoin:round" />
    <path
       id="lky4sf25o7"
       stroke-width="4.23333"
       stroke="#001f3f"
       d="m 187.79521,378.66471 v 0 c 0,0 -1.14769,-0.38391 -0.87313,-0.60854 0.61915,-0.50668 1.5313,-0.5133 2.32833,-0.58209 1.46741,-0.12647 2.94934,-0.10371 4.41855,0 1.29024,0.091 3.83645,0.58209 3.83645,0.58209"
       style="fill:none;stroke-linecap:round;stroke-linejoin:round" />
    <path
       id="lky4sf2ey2"
       stroke-width="4.23333"
       stroke="#001f3f"
       d="m 187.79521,383.66533 v 0 c 0,0 -1.93186,0.0659 -1.48167,0.29104 0.61529,0.30771 1.37583,0 2.06375,0 1.7639,0 5.29167,0 5.29167,0"
       style="fill:none;stroke-linecap:round;stroke-linejoin:round" />
    <path
       id="lky4sf2p4g"
       stroke-width="4.23333"
       stroke="#001f3f"
       d="m 208.08875,376.892 v 0 c 0,0 -0.52719,-0.51223 -0.3175,-0.58208 0.65262,-0.21749 1.37583,0 2.06375,0 1.37583,0 2.75166,0 4.1275,0 1.56985,0 4.70958,0 4.70958,0"
       style="fill:none;stroke-linecap:round;stroke-linejoin:round" />
    <path
       id="lky4sf2yhw"
       stroke-width="4.23333"
       stroke="#001f3f"
       d="m 207.18916,383.95637 v 0 c 0,0 -1.16416,-0.109 -1.16416,0.29105 0,0.43391 0.73242,0.53922 1.16416,0.58208 1.56221,0.15478 3.14291,0.10001 4.70959,0 1.48256,-0.0945 4.41854,-0.58208 4.41854,-0.58208"
       style="fill:none;stroke-linecap:round;stroke-linejoin:round" />
    <path
       id="lky4sf3smm"
       stroke-width="4.23333"
       stroke="#001f3f"
       d="m 231.00166,370.72721 v 0 c 0,0 0,0 0,0 0.97896,0 1.95874,0.0402 2.93688,0 1.37808,-0.0569 2.75227,-0.18574 4.1275,-0.29104 1.27066,-0.0974 2.54894,-0.13362 3.81,-0.3175 0.80007,-0.11669 1.56638,-0.4027 2.35479,-0.58209 0.49078,-0.11165 0.98499,-0.20955 1.48167,-0.29104 0.0957,-0.0159 0.35964,-0.0685 0.29104,0 -0.15341,0.15346 -0.41299,0.15505 -0.58209,0.29104 -0.33057,0.26564 -0.59973,0.59981 -0.89958,0.89959 -0.58208,0.58208 -1.12776,1.20306 -1.74625,1.74625 -1.05042,0.9226 -2.21001,1.71635 -3.25437,2.64583 -0.72208,0.64267 -1.31911,1.41684 -2.03729,2.06375 -0.26536,0.23918 -0.76388,0.25162 -0.89959,0.58208 -0.11972,0.29157 0.0161,0.7456 0.29104,0.89959 0.70546,0.39502 1.5766,0.36248 2.35479,0.58208 1.28622,0.36274 2.58038,0.70776 3.83646,1.16417 0.90901,0.3302 1.80713,0.70908 2.64584,1.19062 0.53869,0.3093 1.38729,0.54663 1.4552,1.16417 0.0687,0.62441 -0.62042,1.16734 -1.16416,1.48166 -1.37102,0.7927 -2.92701,1.21391 -4.41854,1.74625 -1.25315,0.44715 -2.54183,0.78793 -3.81,1.19063 -0.59278,0.18812 -1.77271,0.58208 -1.77271,0.58208"
       style="fill:none;stroke-linecap:round;stroke-linejoin:round" />
    <path
       id="lky4sf8wmb"
       stroke-width="4.23333"
       stroke="#001f3f"
       d="m 39.919583,418.64325 v 0 c 0,0 -0.776103,0 -0.582084,0 0.291042,0 0.631349,0.16192 0.873125,0 1.568794,-1.05119 2.918381,-2.39845 4.418542,-3.54542 1.834356,-1.40255 3.824975,-2.60376 5.582708,-4.10104 1.585621,-1.3507 3.044534,-2.853 4.418542,-4.41854 0.785944,-0.89535 1.363715,-1.95421 2.037291,-2.93688 0.402432,-0.58711 1.689391,-2.28044 1.190625,-1.7727 -0.979646,0.99747 -1.711616,2.21429 -2.645833,3.25437 -1.713362,1.90765 -3.560683,3.6912 -5.291667,5.58271 -1.312333,1.43404 -2.668243,2.83845 -3.836458,4.39208 -0.60489,0.8046 -1.396735,1.64095 -1.455208,2.64584 -0.05088,0.87418 0.410871,1.90844 1.164166,2.35479 1.113923,0.66013 2.541641,0.60854 3.836459,0.60854 1.871927,0 5.582708,-0.60854 5.582708,-0.60854"
       style="fill:none;stroke-linecap:round;stroke-linejoin:round" />
    <path
       id="lky4sf9fvy"
       stroke-width="4.23333"
       stroke="#001f3f"
       d="m 43.438541,409.22408 v 0 c 0,0 1.764136,-0.0212 2.645833,0 3.140313,0.0757 6.278483,0.23231 9.419167,0.29104 2.054569,0.0384 6.164791,0 6.164791,0"
       style="fill:none;stroke-linecap:round;stroke-linejoin:round" />
    <path
       id="lky4sf9rg2"
       stroke-width="4.23333"
       stroke="#001f3f"
       d="m 61.668332,415.70637 v 0 c 0,0 -1.36226,-0.75776 -2.06375,-0.60854 -0.821293,0.17489 -1.427533,0.90435 -2.037291,1.48167 -1.056323,1.00012 -2.16715,1.99363 -2.936875,3.22792 -0.261329,0.4191 -0.284613,1.07791 0,1.48166 0.301069,0.42704 0.94652,0.46302 1.455208,0.58209 1.157631,0.27093 2.344658,0.76782 3.518958,0.58208 1.387793,-0.21961 2.535582,-1.21523 3.836459,-1.74625 0.862462,-0.3519 1.833694,-0.44344 2.645833,-0.89958 0.785654,-0.44133 1.386046,-1.15226 2.06375,-1.74625 0.107976,-0.0947 0.394785,-0.41672 0.291041,-0.3175 -0.30644,0.29315 -0.732948,0.50958 -0.899583,0.89958 -0.729932,1.70815 -1.075108,3.5597 -1.74625,5.29167 -0.697574,1.80022 -1.489313,3.56579 -2.354791,5.29166 -0.6096,1.2155 -1.159696,2.50322 -2.06375,3.51896 -0.705776,0.79296 -1.603508,1.57136 -2.645834,1.77271 -1.167341,0.22542 -2.391621,-0.20452 -3.518958,-0.58208 -0.674952,-0.22622 -1.965934,-0.50562 -1.772708,-1.19063 0.375814,-1.33244 1.766914,-2.19657 2.936875,-2.93687 2.593128,-1.64069 5.431816,-2.86491 8.228541,-4.1275 2.209192,-0.99748 6.773333,-2.64584 6.773333,-2.64584"
       style="fill:none;stroke-linecap:round;stroke-linejoin:round" />
    <path
       id="lky4sfal79"
       stroke-width="4.23333"
       stroke="#001f3f"
       d="m 81.961874,404.5145 v 0 c 0,0 -1.224889,0.61145 -1.481667,1.19062 -0.95213,2.14763 -1.762522,4.41378 -2.037292,6.74688 -0.219868,1.8669 0.12618,3.78566 0.582084,5.60917 0.435372,1.74148 1.068017,3.48059 2.06375,4.97416 0.810207,1.21523 3.227916,2.96334 3.227916,2.96334"
       style="fill:none;stroke-linecap:round;stroke-linejoin:round" />
    <path
       id="lky4sfb029"
       stroke-width="4.23333"
       stroke="#001f3f"
       d="m 93.12729,418.64325 v 0 c 0,0 0.566632,-0.75062 0.873125,-0.58208 0.78875,0.43391 1.115669,1.42187 1.772708,2.03729 1.015471,0.95091 2.160006,1.75418 3.227917,2.64583 0.696092,0.58129 2.06375,1.77271 2.06375,1.77271"
       style="fill:none;stroke-linecap:round;stroke-linejoin:round" />
    <path
       id="lky4sfbajb"
       stroke-width="4.23333"
       stroke="#001f3f"
       d="m 94.317915,427.16283 v 0 c 0,0 0.372719,-0.40481 0.582083,-0.58208 1.061482,-0.89932 2.107142,-1.82166 3.227917,-2.64583 2.215305,-1.62931 4.476225,-3.19776 6.773335,-4.70959 1.13591,-0.74745 2.37826,-1.32344 3.51896,-2.06375 0.52109,-0.33814 1.4552,-1.16416 1.4552,-1.16416"
       style="fill:none;stroke-linecap:round;stroke-linejoin:round" />
    <path
       id="lky4sfbo4j"
       stroke-width="4.23333"
       stroke="#001f3f"
       d="m 108.42021,405.70512 v 0 c 0,0 -0.0933,-0.3175 0,-0.29104 1.39538,0.39608 2.83448,0.74824 4.10104,1.45521 2.09579,1.16999 4.01449,2.64266 5.90021,4.1275 1.35824,1.06945 2.78056,2.13016 3.81,3.51896 0.68289,0.92128 1.42425,2.10502 1.19062,3.22792 -0.41182,1.97934 -1.69487,3.71739 -2.96333,5.29166 -1.21968,1.51368 -2.91193,2.57625 -4.39209,3.83646 -0.47826,0.40719 -1.48166,1.16417 -1.48166,1.16417"
       style="fill:none;stroke-linecap:round;stroke-linejoin:round" />
    <path
       id="lky4sfcb74"
       stroke-width="4.23333"
       stroke="#001f3f"
       d="m 133.10583,412.452 v 0 c 0,0 -0.3828,-0.0315 -0.29104,0 0.67834,0.23283 1.35112,0.52784 2.06375,0.60854 1.94784,0.22066 3.91573,0.19632 5.87375,0.29104 2.05481,0.0995 4.11125,0.16801 6.16479,0.29104 1.18367,0.0709 3.54542,0.29105 3.54542,0.29105"
       style="fill:none;stroke-linecap:round;stroke-linejoin:round" />
    <path
       id="lky4sfcl0g"
       stroke-width="4.23333"
       stroke="#001f3f"
       d="m 134.87854,419.22533 v 0 c 0,0 -0.82825,0.46091 -0.58208,0.58209 0.7095,0.34951 1.56445,0.26087 2.35479,0.29104 1.7626,0.0672 5.29166,0 5.29166,0"
       style="fill:none;stroke-linecap:round;stroke-linejoin:round" />
    <path
       id="lky4sfcx3h"
       stroke-width="4.23333"
       stroke="#001f3f"
       d="m 161.04583,413.93367 v 0 c 0,0 -0.42823,-0.29105 -0.29104,-0.29105 0.79089,0 1.56943,0.19738 2.35479,0.29105 1.65764,0.19737 3.30801,0.47889 4.97417,0.58208 1.47002,0.091 4.41854,0 4.41854,0"
       style="fill:none;stroke-linecap:round;stroke-linejoin:round" />
    <path
       id="lky4sfd692"
       stroke-width="4.23333"
       stroke="#001f3f"
       d="m 158.98208,420.3895 v 0 c 0,0 0.36195,0.29766 0.58208,0.3175 0.97499,0.0878 1.95977,-0.0603 2.93688,0 2.16532,0.13388 6.48229,0.58208 6.48229,0.58208"
       style="fill:none;stroke-linecap:round;stroke-linejoin:round" />
    <path
       id="lky4sfdgkm"
       stroke-width="4.23333"
       stroke="#001f3f"
       d="m 185.73146,415.70637 v 0 c 0,0 0.38883,-0.0185 0.58208,0 0.88368,0.0796 1.76133,0.22093 2.64583,0.29105 1.56795,0.12409 3.13939,0.19976 4.70959,0.29104 1.76358,0.10266 5.29166,0.29104 5.29166,0.29104"
       style="fill:none;stroke-linecap:round;stroke-linejoin:round" />
    <path
       id="lky4sfdpud"
       stroke-width="4.23333"
       stroke="#001f3f"
       d="m 185.44041,421.58012 v 0 c 0,0 0,0 0,0 1.27,0 2.54387,-0.099 3.81,0 2.4615,0.19262 7.35542,0.87313 7.35542,0.87313"
       style="fill:none;stroke-linecap:round;stroke-linejoin:round" />
    <path
       id="lky4sfg82p"
       stroke-width="4.23333"
       stroke="#001f3f"
       d="m 222.77312,398.93179 v 0 c 0,0 1.959,0.046 2.93688,0 1.07913,-0.0511 2.14921,-0.23177 3.22791,-0.29104 0.68689,-0.0378 1.38102,-0.0844 2.06375,0 0.13616,0.0159 0.37217,0.18044 0.29105,0.29104 -0.29001,0.39555 -0.78489,0.5887 -1.16417,0.89958 -0.69694,0.57124 -1.38129,1.15782 -2.06375,1.74625 -0.79044,0.68157 -1.59073,1.35282 -2.35479,2.06375 -0.50679,0.47149 -1.05627,0.91599 -1.45521,1.48167 -0.11181,0.15849 -0.1515,0.4609 0,0.58208 0.40796,0.32624 0.94279,0.48022 1.45521,0.58209 0.96488,0.19182 1.96625,0.13097 2.93687,0.29104 0.79777,0.13176 1.66256,0.16431 2.35479,0.58208 0.3782,0.22834 0.72052,0.771 0.58209,1.19063 -0.21498,0.6514 -0.86032,1.11363 -1.45521,1.45521 -0.80783,0.46381 -1.74273,0.67124 -2.64583,0.89958 -0.67353,0.17039 -2.06375,0.29104 -2.06375,0.29104"
       style="fill:none;stroke-linecap:round;stroke-linejoin:round" />
    <path
       id="lky4sfgwcq"
       stroke-width="4.23333"
       stroke="#001f3f"
       d="m 213.38041,418.93429 v 0 c 0,0 0,0 0,0 1.95792,0.0971 3.91372,0.25691 5.87375,0.29104 3.62424,0.063 7.24959,0 10.87438,0 2.74285,0 5.48568,0 8.22854,0 1.17298,0 3.51896,0 3.51896,0"
       style="fill:none;stroke-linecap:round;stroke-linejoin:round" />
    <path
       id="lky4sfh973"
       stroke-width="4.23333"
       stroke="#001f3f"
       d="m 220.41833,426.87179 v 0 c 0,0 1.56469,-0.25559 2.35479,-0.29104 1.37446,-0.0617 2.7532,-0.0648 4.1275,0 0.68522,0.0323 1.5103,-0.14817 2.03729,0.29104 0.30729,0.25612 0.003,0.89191 -0.29104,1.16417 -1.13279,1.05251 -2.49653,1.83012 -3.81,2.64583 -1.52961,0.95012 -3.07414,1.8923 -4.70958,2.64583 -0.73634,0.3392 -1.63129,0.24263 -2.35479,0.60855 -0.17315,0.0876 -0.19402,0.58208 0,0.58208 1.29344,0 2.54764,-0.47255 3.83646,-0.58208 2.24334,-0.19077 4.49614,-0.26088 6.74687,-0.3175 1.95731,-0.0492 5.87375,0 5.87375,0"
       style="fill:none;stroke-linecap:round;stroke-linejoin:round" />
    <rect
       style="opacity:0;fill:none;stroke:#ff0000;stroke-width:0.665001"
       id="rect2346"
       width="612.39514"
       height="395.56631"
       x="-234.75429"
       y="66.897232" />
  </g>
</svg>
