<?xml version="1.0" encoding="UTF-8" standalone="no"?>
<!-- Created with Inkscape (http://www.inkscape.org/) -->

<svg
   width="477.83777mm"
   height="141.03714mm"
   viewBox="0 0 477.83777 141.03714"
   version="1.1"
   id="svg15847"
   inkscape:version="1.1.1 (3bf5ae0d25, 2021-09-20)"
   xmlns:inkscape="http://www.inkscape.org/namespaces/inkscape"
   xmlns:sodipodi="http://sodipodi.sourceforge.net/DTD/sodipodi-0.dtd"
   xmlns="http://www.w3.org/2000/svg"
   xmlns:svg="http://www.w3.org/2000/svg">
  <sodipodi:namedview
     id="namedview15849"
     pagecolor="#ffffff"
     bordercolor="#666666"
     borderopacity="1.0"
     inkscape:pageshadow="2"
     inkscape:pageopacity="0.0"
     inkscape:pagecheckerboard="0"
     inkscape:document-units="mm"
     showgrid="false"
     fit-margin-top="0"
     fit-margin-left="0"
     fit-margin-right="0"
     fit-margin-bottom="0"
     inkscape:zoom="0.77771465"
     inkscape:cx="816.49485"
     inkscape:cy="535.54347"
     inkscape:window-width="1920"
     inkscape:window-height="1147"
     inkscape:window-x="1920"
     inkscape:window-y="28"
     inkscape:window-maximized="1"
     inkscape:current-layer="layer1" />
  <defs
     id="defs15844" />
  <g
     inkscape:label="Layer 1"
     inkscape:groupmode="layer"
     id="layer1"
     transform="translate(148.42405,-6.708282)">
    <path
       id="skxcdes37y"
       stroke-width="1.05833"
       stroke="#90468b"
       d="M -147.89488,28.418348 H 328.88457"
       style="fill:none;stroke-linecap:round;stroke-linejoin:round" />
    <rect
       id="rkxcdf6xdo"
       x="74.619698"
       y="107.52876"
       width="32.279167"
       height="39.6875"
       stroke="#90468b"
       stroke-width="1.05833"
       style="fill:none" />
    <path
       id="skxcdfdpzp"
       stroke-width="1.05833"
       stroke="#90468b"
       d="M 90.759279,106.9996 -97.604885,28.976619"
       style="fill:none;stroke-linecap:round;stroke-linejoin:round" />
    <path
       id="skxcdfj6ga"
       stroke-width="1.05833"
       stroke="#90468b"
       d="M 90.759279,106.9996 279.57129,28.791146"
       style="fill:none;stroke-linecap:round;stroke-linejoin:round" />
    <path
       id="lkxcdfoa5x"
       stroke-width="1.05833"
       stroke="#90468b"
       d="m 213.79053,28.682932 v 0 c 0,0 0,0 0,0 -0.0882,0 -0.20222,-0.06244 -0.26459,0 -0.0624,0.06244 0.0214,0.179123 0,0.264583 -0.0676,0.270669 -0.15472,0.537369 -0.26458,0.79375 -0.15536,0.362479 -0.4436,0.673365 -0.52917,1.058333 -0.0957,0.430477 0,0.881857 0,1.322917 0,0.529167 0,1.058333 0,1.5875 0,0.529167 -0.087,1.065477 0,1.5875 0.0917,0.550333 0.43747,1.037167 0.52917,1.5875 0.087,0.522023 0,1.058333 0,1.5875 0,0.529167 -0.0406,1.059921 0,1.5875 0.0478,0.621771 0.16206,1.236927 0.26458,1.852083 0.0739,0.443706 0.082,0.912019 0.26459,1.322917 0.17909,0.40296 0.54914,0.691356 0.79375,1.058333 0.28525,0.427831 0.5085,0.895086 0.79375,1.322917 0.24461,0.366977 0.52916,0.705644 0.79375,1.058333 0.26458,0.35269 0.53745,0.699558 0.79375,1.058333 0.18484,0.258763 0.32559,0.54954 0.52916,0.79375 0.23956,0.287338 0.50158,0.560123 0.79375,0.79375 0.15399,0.123296 0.34608,0.191294 0.52917,0.264584 0.25895,0.103452 0.57063,0.09737 0.79375,0.264583 0.15777,0.118269 0.10681,0.410898 0.26458,0.529167 0.22313,0.167216 0.54431,0.139964 0.79375,0.264583 0.11155,0.05583 0.1954,0.160867 0.26459,0.264583 0.10938,0.164042 0.10049,0.419894 0.26458,0.529167 0.14677,0.0979 0.36182,-0.05583 0.52917,0 0.11832,0.03942 0.15303,0.208756 0.26458,0.264583 0.0789,0.03942 0.1764,0 0.26458,0 0.0882,0 0.26459,0 0.26459,0"
       style="fill:none;stroke-linecap:round;stroke-linejoin:round" />
    <path
       id="lkxcdfpfkp"
       stroke-width="1.05833"
       stroke="#90468b"
       d="m 234.16344,35.826682 v 0 c 0,0 -0.0882,-0.617273 -0.26458,-0.529167 -0.39441,0.197114 -0.54914,0.691356 -0.79375,1.058333 -0.46151,0.692415 -0.81751,1.455738 -1.32292,2.116667 -0.6451,0.843492 -1.29688,1.706033 -2.11666,2.38125 -0.70094,0.577321 -1.58007,0.895614 -2.38125,1.322916 -0.52203,0.278342 -0.99761,0.748507 -1.5875,0.79375 -0.64019,0.04921 -1.26537,-0.268287 -1.85209,-0.529166 -0.22793,-0.101336 -0.60803,-0.292629 -0.52916,-0.529167 0.15777,-0.473339 0.66876,-0.746654 1.05833,-1.058333 0.49662,-0.397404 0.97965,-0.871273 1.5875,-1.058333 0.59007,-0.181505 1.23685,-0.05133 1.85208,0 0.44816,0.03731 0.90959,0.08731 1.32292,0.264583 0.22929,0.09816 0.37333,0.334433 0.52917,0.529167 0.19865,0.248179 0.35277,0.529166 0.52916,0.79375 0.1764,0.264583 0.28774,0.586845 0.52917,0.793749 0.39045,0.334698 0.80865,0.79375 1.32292,0.79375 0.75353,0 1.43568,-0.471222 2.11666,-0.79375 0.9987,-0.473075 2.91042,-1.587499 2.91042,-1.587499"
       style="fill:none;stroke-linecap:round;stroke-linejoin:round" />
    <path
       id="lkxcdfrkkt"
       stroke-width="1.05833"
       stroke="#90468b"
       d="m 81.498863,117.58293 v 0 c 0,0 -0.352769,-0.17648 -0.529167,-0.26458 -0.176398,-0.0881 -0.346075,-0.1913 -0.529167,-0.26459 -0.258947,-0.10345 -0.514852,-0.26458 -0.79375,-0.26458 -0.124724,0 -0.195394,0.16087 -0.264583,0.26458 -0.109379,0.16405 -0.264583,0.33206 -0.264583,0.52917 0,0.36354 0.264583,0.6948 0.264583,1.05833 0,0.4498 -0.264583,0.87313 -0.264583,1.32292 0,0.27887 0.09723,0.57071 0.264583,0.79375 0.118322,0.15769 0.334645,0.23204 0.529167,0.26458 0.34798,0.058 0.708289,0.0437 1.058333,0 0.360839,-0.045 0.720699,-0.12964 1.058333,-0.26458 0.115809,-0.0463 0.289058,-0.38682 0.264584,-0.26458 -0.109379,0.54689 -0.444341,1.03611 -0.529167,1.5875 -0.09387,0.61013 0,1.23481 0,1.85208 0,0.44106 0,0.88186 0,1.32292 0,0.17647 0.05577,0.36195 0,0.52916 -0.03945,0.11827 -0.139859,0.26459 -0.264583,0.26459 -0.363644,0 -0.708687,-0.16457 -1.058334,-0.26459 -0.268155,-0.0767 -0.534802,-0.16113 -0.79375,-0.26458 -0.183091,-0.0733 -0.371395,-0.14631 -0.529166,-0.26458 -0.199549,-0.14976 -0.529167,-0.27967 -0.529167,-0.52917 0,-0.2495 0.43651,-0.29766 0.529167,-0.52917 0.09827,-0.24553 0,-0.52916 0,-0.79375 0,-0.0881 0,-0.26458 0,-0.26458"
       style="fill:none;stroke-linecap:round;stroke-linejoin:round" />
    <path
       id="lkxcdfsipe"
       stroke-width="1.05833"
       stroke="#90468b"
       d="m 87.584279,122.34543 v 0 c 0,0 -0.529166,0 -0.529166,0"
       style="fill:none;stroke-linecap:round;stroke-linejoin:round" />
    <path
       id="lkxcdfstub"
       stroke-width="1.05833"
       stroke="#90468b"
       d="m 91.817613,124.19751 v 0 c 0,0 0.671115,-0.74374 1.058333,-1.05833 1.026742,-0.83423 2.183024,-1.50601 3.175,-2.38125 0.516493,-0.45561 0.996341,-0.98107 1.322917,-1.5875 0.304403,-0.56541 0.458258,-1.21391 0.529166,-1.85208 0.0217,-0.19606 -0.06736,-0.52917 -0.264583,-0.52917 -0.474954,0 -0.922232,0.27411 -1.322917,0.52917 -0.581131,0.36988 -1.120298,0.81677 -1.5875,1.32291 -0.598196,0.64797 -1.155118,1.34806 -1.5875,2.11667 -0.369437,0.6567 -0.45675,1.44277 -0.79375,2.11667 -0.284427,0.56885 -0.731123,1.04219 -1.058333,1.5875 -0.202935,0.33813 -0.529167,0.66384 -0.529167,1.05833 0,0.19712 0.389732,-0.12515 0.529167,-0.26458 0.574966,-0.57494 1.038066,-1.2528 1.5875,-1.85209 0.421402,-0.45958 0.843836,-0.92366 1.322917,-1.32291 0.582824,-0.48578 1.158795,-1.01468 1.852083,-1.32292 0.180208,-0.0802 0.45593,0.0815 0.529167,0.26458 0.131021,0.32756 0.171317,0.74983 0,1.05834 -0.302869,0.54504 -0.859367,0.90567 -1.322917,1.32291 -0.419762,0.37783 -0.844047,0.75909 -1.322917,1.05834 -0.236511,0.1479 -0.514852,0.26458 -0.79375,0.26458 -0.124724,0 -0.382905,-0.22516 -0.264583,-0.26458 0.334671,-0.11166 0.734086,-0.13891 1.058333,0 0.343932,0.14737 0.506307,0.5543 0.79375,0.79375 0.24429,0.20346 0.496015,0.41751 0.79375,0.52916 0.421085,0.15796 0.873205,0.26459 1.322917,0.26459 0.798645,0 2.38125,-0.26459 2.38125,-0.26459"
       style="fill:none;stroke-linecap:round;stroke-linejoin:round" />
    <path
       id="lkxcdftni1"
       stroke-width="1.05833"
       stroke="#90468b"
       d="m 101.07803,123.40376 v 0 c 0,0 -1.234732,0.35269 -1.852084,0.52917 -0.617352,0.17648 -1.301512,0.1987 -1.852083,0.52917 -0.378143,0.22675 -0.59653,0.66384 -0.79375,1.05833 -0.162613,0.32517 -0.491755,0.77444 -0.264584,1.05833 0.280935,0.35111 0.880454,0.34502 1.322917,0.26459 0.582083,-0.10584 1.095243,-0.46567 1.5875,-0.79375 0.57314,-0.38206 1.100424,-0.83582 1.587504,-1.32292 0.13943,-0.13943 0.12514,-0.38973 0.26458,-0.52917 0.0624,-0.0624 0.2432,-0.0855 0.26458,0 0.0856,0.34237 0.0319,0.70697 0,1.05834 -0.0565,0.62097 -0.12014,1.24539 -0.26458,1.85208 -0.29742,1.2491 -0.54631,2.52651 -1.05833,3.70417 -0.380369,0.87497 -0.888448,1.73222 -1.587504,2.38125 -0.578062,0.53684 -1.373796,0.79295 -2.116667,1.05833 -0.505222,0.18045 -1.089395,0.46381 -1.5875,0.26458 -0.258947,-0.10345 0.06736,-0.59663 0.264584,-0.79375 1.501907,-1.50177 3.181032,-2.81543 4.7625,-4.23333 0.976207,-0.87524 2.910417,-2.64583 2.910417,-2.64583"
       style="fill:none;stroke-linecap:round;stroke-linejoin:round" />
    <path
       id="skxcdg6qkd"
       stroke-width="1.05833"
       stroke="#7fdbff"
       d="M 91.288446,107.26418 V 27.62063"
       style="fill:none;stroke-linecap:round;stroke-linejoin:round" />
    <text
       id="tkxcdy4j21"
       x="172.25095"
       y="86.891266"
       font-size="9.525px"
       fill="#90468b"
       style="font-family:Arial;stroke-width:0.264583">tross</text>
    <text
       id="tkxcdyax10"
       x="-62.169884"
       y="71.016266"
       font-size="9.525px"
       fill="#90468b"
       style="font-family:Arial;stroke-width:0.264583">tross</text>
    <path
       id="lkxcdys61b"
       stroke-width="1.05833"
       stroke="#90468b"
       d="m -33.859469,15.718348 v 0 c 0,0 -0.544298,0.139965 -0.79375,0.264584 -0.07888,0.03942 0.17639,0 0.264583,0 0.705557,0 1.41111,0 2.116667,0 0.881943,0 1.76389,0 2.645833,0 0.881944,0 2.645833,0 2.645833,0"
       style="fill:none;stroke-linecap:round;stroke-linejoin:round" />
    <path
       id="lkxcdyskyv"
       stroke-width="1.05833"
       stroke="#90468b"
       d="m -21.159469,18.099598 v 0 c 0,0 -1.020697,0.426773 -0.79375,0.264584 0.836938,-0.597694 1.801519,-1.000125 2.645833,-1.5875 1.187437,-0.826029 2.366955,-1.675342 3.439583,-2.645833 0.787511,-0.712523 1.469152,-1.539611 2.116667,-2.38125 0.24048,-0.312738 0.299916,-0.737394 0.529167,-1.058334 0.217484,-0.304535 0.459076,-0.626533 0.79375,-0.7937498 0.176389,-0.088106 -0.166741,0.3579808 -0.264584,0.5291668 -0.255143,0.446617 -0.513485,0.891646 -0.79375,1.322917 -0.866502,1.33297 -1.777296,2.637102 -2.645833,3.968749 -0.454509,0.696913 -0.974249,1.361282 -1.322917,2.116667 -0.188452,0.408252 -0.320362,0.876565 -0.264583,1.322917 0.03944,0.315648 0.212484,0.822589 0.529167,0.79375 0.865047,-0.07858 1.640078,-0.605367 2.38125,-1.058334 0.858035,-0.524404 2.38125,-1.852083 2.38125,-1.852083"
       style="fill:none;stroke-linecap:round;stroke-linejoin:round" />
    <path
       id="lkxcdyt2yq"
       stroke-width="1.05833"
       stroke="#90468b"
       d="m -19.307386,13.337099 v 0 c 0,0 0.529167,0 0.79375,0 1.146527,0 2.293652,0.03704 3.439583,0 1.589122,-0.05133 4.7625,-0.264584 4.7625,-0.264584"
       style="fill:none;stroke-linecap:round;stroke-linejoin:round" />
    <path
       id="lkxcdytjw5"
       stroke-width="1.05833"
       stroke="#90468b"
       d="m -15.867803,18.364182 v 0 c 0,0 0,0 0,0 0.17639,0 0.35414,0.02117 0.529167,0 0.532323,-0.06641 1.092301,-0.05821 1.5875,-0.264584 0.587057,-0.244739 1.029176,-0.753797 1.5875,-1.058333 0.416949,-0.227542 0.910553,-0.293423 1.322917,-0.529167 0.216585,-0.123825 0.279714,-0.529166 0.529166,-0.529166 0.19721,0 0.155192,0.365125 0.264584,0.529166 0.069186,0.103717 0.1422793,0.240242 0.2645829,0.264584 0.3459269,0.06906 0.7077128,0.03889 1.0583334,0 0.4469553,-0.04974 0.8962892,-0.122502 1.3229166,-0.264584 0.3741764,-0.124618 0.6921262,-0.382587 1.0583333,-0.529166 0.081886,-0.03281 0.3135048,-0.07329 0.2645833,0 -0.207555,0.311414 -0.550238,0.509587 -0.7937499,0.79375 -0.2869803,0.334698 -0.6543014,0.640027 -0.79375,1.058333 -0.1394487,0.418306 -0.2446073,0.95594 0,1.322917 0.2017077,0.302683 0.6946979,0.264583 1.0583333,0.264583 0.8863436,0 1.7785027,-0.08202 2.6458333,-0.264583 0.8187399,-0.172244 2.38125,-0.79375 2.38125,-0.79375"
       style="fill:none;stroke-linecap:round;stroke-linejoin:round" />
    <path
       id="lkxcdyu4da"
       stroke-width="1.05833"
       stroke="#90468b"
       d="m 2.3884471,15.982932 v 0 c 0,0 -0.1775883,0.01587 -0.2645833,0 -0.4435872,-0.07382 -0.88392,-0.362215 -1.32291667,-0.264584 -0.43047179,0.09578 -0.67743122,0.5715 -1.05833332,0.79375 -0.6813788,0.397405 -1.53297461,0.52758 -2.11666661,1.058334 -0.437769,0.397933 -0.79375,0.995891 -0.79375,1.5875 0,0.374121 0.4327578,0.695325 0.79375,0.79375 0.6806935,0.185737 1.43493326,0.181769 2.11666661,0 0.68703824,-0.183092 1.26957139,-0.650611 1.85208329,-1.058334 0.3065383,-0.214577 0.5291667,-0.529166 0.79375,-0.79375 0.1763898,-0.176477 0.2871629,-0.468577 0.5291667,-0.529166 0.1913202,-0.04789 0.3346423,0.232039 0.5291666,0.264583 0.3479774,0.05794 0.7055565,0 1.0583333,0 0.4409731,0 0.9005412,0.126736 1.3229167,0 0.4925695,-0.147902 0.8868278,-0.521229 1.3229167,-0.79375 0.2696553,-0.168539 0.5176572,-0.371475 0.7937499,-0.529167 0.3424502,-0.195791 0.6663293,-0.572822 1.0583334,-0.529166 0.5111115,0.05688 0.9169876,0.478102 1.3229166,0.79375 0.393811,0.306387 0.937331,0.57441 1.058333,1.058333 0.09566,0.382588 -0.352777,0.705644 -0.529166,1.058333 -0.17639,0.35269 -0.226166,0.805921 -0.529167,1.058334 -0.279352,0.232833 -0.713359,0.149489 -1.0583333,0.264583 -0.083669,0.02778 0.1857004,0.03942 0.2645833,0 0.4599649,-0.229923 0.862952,-0.563827 1.322917,-0.79375 0.776912,-0.388408 1.624187,-0.632354 2.38125,-1.058333 0.661244,-0.372004 1.264898,-0.842434 1.852083,-1.322917 0.38613,-0.315912 0.738944,-0.674952 1.058333,-1.058333 0.126251,-0.151606 0.100497,-0.419894 0.264584,-0.529167 0.146764,-0.0979 0.371401,-0.07885 0.529166,0 0.223115,0.111654 0.390795,0.321733 0.529167,0.529167 0.218784,0.328083 0.337621,0.713581 0.529167,1.058333 0.249745,0.449527 0.631126,0.835025 0.79375,1.322917 0.111558,0.334698 0.249451,0.808831 0,1.058333 -0.474941,0.474927 -1.208741,0.600869 -1.852084,0.79375 -0.253426,0.07594 -0.79375,0 -0.79375,0"
       style="fill:none;stroke-linecap:round;stroke-linejoin:round" />
    <path
       id="lkxcdyvaa8"
       stroke-width="1.05833"
       stroke="#90468b"
       d="m 25.407197,19.157932 v 0 c 0,0 0,0 0,0 0.17639,0.264583 0.338373,0.539485 0.529166,0.79375 0.338831,0.451644 0.659017,0.92366 1.058334,1.322916 0.224853,0.224896 0.79375,0.529167 0.79375,0.529167"
       style="fill:none;stroke-linecap:round;stroke-linejoin:round" />
    <path
       id="lkxcdyvl8o"
       stroke-width="1.05833"
       stroke="#90468b"
       d="m 24.87803,21.803765 v 0 c 0,0 0.185701,0.03942 0.264583,0 0.635979,-0.318029 1.226029,-0.721254 1.852084,-1.058333 0.520909,-0.280459 1.058333,-0.529167 1.5875,-0.79375 0.705556,-0.35269 1.470427,-0.605896 2.116666,-1.058334 0.260507,-0.182297 0.529167,-0.79375 0.529167,-0.79375"
       style="fill:none;stroke-linecap:round;stroke-linejoin:round" />
    <path
       id="lkxcdywh8o"
       stroke-width="1.05833"
       stroke="#90468b"
       d="m 115.36553,15.982932 v 0 c 0,0 -0.39079,0.321733 -0.52917,0.529166 -0.0489,0.07329 -0.0789,0.304007 0,0.264584 0.39442,-0.197115 0.69496,-0.543984 1.05834,-0.79375 1.04814,-0.720725 2.21234,-1.285346 3.175,-2.116667 0.99226,-0.856985 1.80649,-1.903148 2.64583,-2.910416 0.48569,-0.582878 0.84249,-1.2649734 1.32292,-1.8520838 0.31591,-0.386027 0.76835,-0.6524625 1.05833,-1.0583333 0.16211,-0.2270125 0.13986,-0.5442479 0.26458,-0.79375 0.0395,-0.078846 0.0438,0.1881188 0,0.2645834 -0.31554,0.5521854 -0.63955,1.1088687 -1.05833,1.5874999 -0.82132,0.9387418 -1.7639,1.7639768 -2.64583,2.6458338 -0.88194,0.881856 -1.79481,1.734079 -2.64584,2.645833 -0.38531,0.41275 -0.71162,0.877094 -1.05833,1.322916 -0.27072,0.348192 -0.85611,0.621771 -0.79375,1.058334 0.0624,0.436562 0.61833,0.764381 1.05833,0.79375 0.98386,0.06562 1.94178,-0.344752 2.91042,-0.529167 0.88352,-0.168275 2.64583,-0.529167 2.64583,-0.529167"
       style="fill:none;stroke-linecap:round;stroke-linejoin:round" />
    <path
       id="lkxcdyx1cz"
       stroke-width="1.05833"
       stroke="#90468b"
       d="m 117.74678,11.485015 v 0 c 0,0 -0.79375,-0.211137 -0.79375,-0.529166 0,-0.264584 0.52962,0.01587 0.79375,0 1.23574,-0.07276 2.47311,-0.134938 3.70417,-0.264584 2.12142,-0.223308 6.35,-0.7937498 6.35,-0.7937498"
       style="fill:none;stroke-linecap:round;stroke-linejoin:round" />
    <path
       id="lkxcdyxgxg"
       stroke-width="1.05833"
       stroke="#90468b"
       d="m 121.71553,17.041265 v 0 c 0,0 -0.26458,0.332052 -0.26458,0.529167 0,0.124619 0.14626,0.22516 0.26458,0.264583 0.16735,0.05583 0.36401,0.06191 0.52917,0 0.55395,-0.207698 1.09524,-0.465667 1.5875,-0.79375 0.57314,-0.382058 1.05439,-0.886619 1.5875,-1.322917 0.43706,-0.357716 0.84404,-0.759089 1.32291,-1.058333 0.23651,-0.147902 0.51485,-0.264583 0.79375,-0.264583 0.0882,0 -0.0489,0.191294 0,0.264583 0.13838,0.207434 0.29253,0.450321 0.52917,0.529167 0.59163,0.197114 1.22846,0.264583 1.85208,0.264583 0.53647,0 1.07365,-0.110331 1.5875,-0.264583 0.37777,-0.113242 0.70557,-0.35269 1.05834,-0.529167 0.17639,-0.08811 0.65235,-0.418571 0.52916,-0.264583 -0.46749,0.584464 -1.21041,0.941123 -1.5875,1.5875 -0.2703,0.463285 -0.48247,1.097227 -0.26458,1.5875 0.20886,0.4699 0.81264,0.729985 1.32292,0.79375 0.96662,0.120914 1.94521,-0.133086 2.91041,-0.264584 0.977,-0.13335 2.91042,-0.529166 2.91042,-0.529166"
       style="fill:none;stroke-linecap:round;stroke-linejoin:round" />
    <path
       id="lkxcdyy2kr"
       stroke-width="1.05833"
       stroke="#90468b"
       d="m 143.14678,14.395432 v 0 c 0,0 -0.35277,0 -0.52917,0 -0.35277,0 -0.70771,-0.03889 -1.05833,0 -0.44696,0.04974 -0.93729,0.03334 -1.32292,0.264583 -0.53475,0.32094 -0.928,0.840317 -1.32291,1.322917 -0.40273,0.492125 -0.80005,1.00621 -1.05834,1.5875 -0.10745,0.241829 -0.22436,0.653521 0,0.79375 0.61672,0.385498 1.39438,0.614098 2.11667,0.529166 0.86267,-0.1016 1.6506,-0.588697 2.38125,-1.058333 0.52459,-0.337344 0.8568,-0.908579 1.32292,-1.322917 0.32959,-0.292893 0.714,-0.518318 1.05833,-0.79375 0.0974,-0.07779 0.14359,-0.294745 0.26458,-0.264583 0.30851,0.07699 0.51766,0.371475 0.79375,0.529167 0.34245,0.195791 0.66392,0.529166 1.05834,0.529166 0.47495,0 0.89053,-0.332581 1.32291,-0.529166 0.53859,-0.24474 1.08019,-0.489479 1.5875,-0.79375 0.37814,-0.226748 0.66392,-0.596636 1.05834,-0.79375 0.32525,-0.162719 0.71003,-0.369094 1.05833,-0.264583 0.60915,0.182827 1.05833,0.705643 1.5875,1.058333 0.26458,0.176477 0.69318,0.227541 0.79375,0.529166 0.11499,0.345017 -0.0251,0.784755 -0.26458,1.058334 -0.41879,0.478631 -1.06998,0.68871 -1.5875,1.058333 -0.1015,0.0725 -0.37614,0.208756 -0.26459,0.264583 0.23665,0.118269 0.53078,0.02911 0.79375,0 0.53319,-0.05927 1.11416,-0.01323 1.5875,-0.264583 0.88728,-0.473339 1.59602,-1.223962 2.38125,-1.852083 0.53787,-0.430213 1.10043,-0.835819 1.5875,-1.322917 0.39931,-0.399256 0.65903,-0.92366 1.05834,-1.322916 0.13943,-0.139436 0.33194,-0.264584 0.52916,-0.264584 0.12473,0 0.21826,0.148696 0.26459,0.264584 0.13504,0.337608 0.18571,0.703262 0.26458,1.058333 0.0975,0.438944 0.13536,0.892175 0.26458,1.322916 0.13647,0.454819 0.64437,0.862278 0.52917,1.322917 -0.10695,0.427831 -0.64,0.654315 -1.05833,0.79375 -0.41834,0.139436 -1.32292,0 -1.32292,0"
       style="fill:none;stroke-linecap:round;stroke-linejoin:round" />
    <path
       id="lkxcdyz9br"
       stroke-width="1.05833"
       stroke="#90468b"
       d="m 167.48845,18.099598 v 0 c 0,0 -0.52917,-0.06747 -0.52917,-0.264583 0,-0.176477 0.40444,-0.124619 0.52917,0 0.27889,0.278871 0.29252,0.742686 0.52916,1.058333 0.29935,0.398992 0.65921,0.75909 1.05834,1.058334 0.31554,0.236537 1.05833,0.529166 1.05833,0.529166"
       style="fill:none;stroke-linecap:round;stroke-linejoin:round" />
    <path
       id="lkxcdyzkzp"
       stroke-width="1.05833"
       stroke="#90468b"
       d="m 166.95928,20.745432 v 0 c 0,0 0.56679,-0.102394 0.79375,-0.264584 0.40598,-0.289983 0.66876,-0.746654 1.05833,-1.058333 0.49662,-0.397404 1.05095,-0.717021 1.5875,-1.058333 0.43387,-0.275961 0.90445,-0.494771 1.32292,-0.79375 0.20299,-0.144992 0.52916,-0.529167 0.52916,-0.529167"
       style="fill:none;stroke-linecap:round;stroke-linejoin:round" />
    <path
       id="lkxcdz4nld"
       stroke-width="1.05833"
       stroke="#7fdbff"
       d="m 46.044697,56.464181 v 0 c 0,0 -0.417619,0.306123 -0.529167,0.529167 -0.07887,0.157692 -0.124725,0.653785 0,0.529167 0.19722,-0.197115 0.06736,-0.596636 0.264583,-0.79375 0.623623,-0.623623 1.493044,-0.963877 2.116667,-1.5875 0.886354,-0.886354 1.584404,-1.942836 2.38125,-2.910417 0.437885,-0.531812 0.91776,-1.030552 1.322916,-1.5875 0.302472,-0.415925 0.563775,-0.863071 0.79375,-1.322917 0.124725,-0.249502 0.139859,-0.544248 0.264584,-0.79375 0.05577,-0.111654 0.139859,-0.264583 0.264583,-0.264583 0.08819,0 0.06236,0.202142 0,0.264583 -0.311811,0.311944 -0.779092,0.452438 -1.058333,0.79375 -0.526865,0.643996 -0.796052,1.472671 -1.322917,2.116667 -1.066985,1.304131 -2.348336,2.420408 -3.439583,3.704167 -0.411903,0.484452 -0.753798,1.029229 -1.058333,1.5875 -0.227436,0.416983 -0.695934,0.878152 -0.529167,1.322916 0.180578,0.481542 0.80981,0.759619 1.322917,0.79375 0.897413,0.0598 1.781016,-0.282046 2.645833,-0.529166 0.379254,-0.10848 1.058333,-0.529167 1.058333,-0.529167"
       style="fill:none;stroke-linecap:round;stroke-linejoin:round" />
    <path
       id="lkxcdz587p"
       stroke-width="1.05833"
       stroke="#7fdbff"
       d="m 45.51553,52.760015 v 0 c 0,0 -0.568907,-0.304271 -0.79375,-0.529167 -0.06236,-0.06244 -0.08557,-0.243152 0,-0.264583 0.689822,-0.172509 1.406287,-0.233627 2.116667,-0.264584 1.321673,-0.05741 3.96875,0 3.96875,0"
       style="fill:none;stroke-linecap:round;stroke-linejoin:round" />
    <path
       id="lkxcdz5piy"
       stroke-width="1.05833"
       stroke="#7fdbff"
       d="m 49.219697,58.051681 v 0 c 0,0 -0.202222,-0.06244 -0.264584,0 -0.06236,0.06244 -0.08818,0.264584 0,0.264584 0.363644,0 0.727287,-0.114036 1.058334,-0.264584 0.647303,-0.294216 1.252193,-0.676539 1.852083,-1.058333 0.37203,-0.236802 0.699505,-0.537369 1.058333,-0.79375 0.258763,-0.184944 0.509323,-0.387085 0.79375,-0.529167 0.07887,-0.03942 0.215662,-0.07329 0.264583,0 0.154702,0.23204 0.0254,0.650346 0.264584,0.79375 0.302498,0.181504 0.708289,0.04366 1.058333,0 0.360839,-0.04498 0.746522,-0.07752 1.058333,-0.264583 0.169096,-0.101335 0.155205,-0.365125 0.264584,-0.529167 0.06919,-0.103716 0.320357,-0.376237 0.264583,-0.264583 -0.142213,0.284427 -0.284877,0.590285 -0.529167,0.79375 -0.303,0.252412 -0.779436,0.250296 -1.058333,0.529167 -0.363643,0.363537 -0.79375,0.808566 -0.79375,1.322916 0,0.374121 0.442092,0.665957 0.79375,0.79375 0.668232,0.242888 1.41187,0.358511 2.116667,0.264584 0.665771,-0.0889 1.852083,-0.79375 1.852083,-0.79375"
       style="fill:none;stroke-linecap:round;stroke-linejoin:round" />
    <path
       id="lkxcdz69ew"
       stroke-width="1.05833"
       stroke="#7fdbff"
       d="m 62.97803,56.464181 v 0 c 0,0 0.187087,-0.606689 0,-0.79375 -0.187087,-0.18706 -0.540332,-0.07594 -0.79375,0 -0.643335,0.192882 -1.293231,0.421217 -1.852084,0.79375 -0.5189,0.345811 -0.965279,0.812007 -1.322916,1.322917 -0.272362,0.389202 -0.529167,0.84799 -0.529167,1.322917 0,0.318029 0.212487,0.76491 0.529167,0.79375 0.809783,0.07355 1.609857,-0.271992 2.38125,-0.529167 0.824044,-0.274638 1.59258,-0.694267 2.38125,-1.058333 0.358113,-0.165365 0.705564,-0.35269 1.058333,-0.529167 0.176398,-0.08811 0.331946,-0.264583 0.529167,-0.264583 0.19722,0 0.334645,0.232039 0.529166,0.264583 0.34798,0.05794 0.70911,0.05001 1.058334,0 0.276092,-0.03942 0.549963,-0.129117 0.79375,-0.264583 0.555942,-0.308769 1.108868,-0.639498 1.5875,-1.058334 0.239315,-0.209285 0.304323,-0.568854 0.529166,-0.79375 0.06236,-0.06244 0.188966,-0.04524 0.264584,0 0.378142,0.226748 0.746521,0.481807 1.058333,0.79375 0.399309,0.399257 0.879766,0.787136 1.058333,1.322917 0.114988,0.345017 -0.06287,0.75565 -0.264583,1.058333 -0.176398,0.264584 -0.534988,0.344223 -0.79375,0.529167 -0.358828,0.256381 -1.499314,0.79375 -1.058333,0.79375 0.51427,0 0.878707,-0.534723 1.322916,-0.79375 0.614178,-0.358246 1.252194,-0.67654 1.852084,-1.058333 0.37203,-0.236802 0.771339,-0.459052 1.058333,-0.79375 0.256672,-0.299509 0.250269,-0.779463 0.529167,-1.058334 0.124724,-0.124618 0.358034,-0.04286 0.529166,0 0.19132,0.04789 0.389731,0.125148 0.529167,0.264584 0.311811,0.311943 0.638916,0.645318 0.79375,1.058333 0.123878,0.3302 0.157771,0.742685 0,1.058333 -0.223123,0.446352 -0.635265,0.794015 -1.058333,1.058334 -0.308372,0.192616 -1.058334,0.264583 -1.058334,0.264583"
       style="fill:none;stroke-linecap:round;stroke-linejoin:round" />
    <path
       id="lkxcdz7dkn"
       stroke-width="1.05833"
       stroke="#7fdbff"
       d="m 79.382196,59.903765 v 0 c 0,0 -0.264583,-0.08811 -0.264583,0 0,0.124618 0.176398,0.176477 0.264583,0.264583 0.176398,0.176477 0.334381,0.373327 0.529167,0.529167 0.248311,0.198702 0.487997,0.441854 0.79375,0.529166 0.339196,0.09684 0.723662,0.111654 1.058333,0 0.487865,-0.162718 0.873363,-0.543983 1.322917,-0.79375 0.344778,-0.191558 0.73017,-0.310356 1.058333,-0.529166 0.207566,-0.138377 0.417618,-0.306123 0.529167,-0.529167 0.03945,-0.07885 -0.202221,-0.06244 -0.264584,0 -0.224843,0.224896 -0.292814,0.581025 -0.529166,0.79375 -0.655532,0.590021 -1.439148,1.022879 -2.116667,1.5875 -0.911516,0.759619 -1.729899,1.626923 -2.645833,2.38125 -0.585655,0.482335 -1.852084,1.322917 -1.852084,1.322917"
       style="fill:none;stroke-linecap:round;stroke-linejoin:round" />
    <path
       id="lkxcdzqzeg"
       stroke-width="1.05833"
       stroke="#90468b"
       d="m 171.72178,28.682932 v 0 c 0,0 0.0882,-0.264584 0,-0.264584 -0.12473,0 -0.21826,0.148696 -0.26459,0.264584 -0.13504,0.337608 -0.18571,0.703262 -0.26458,1.058333 -0.0976,0.438944 -0.22722,0.874712 -0.26458,1.322917 -0.0513,0.615156 0,1.23481 0,1.852083 0,0.529167 -0.087,1.065477 0,1.5875 0.0917,0.550333 0.39388,1.046427 0.52916,1.5875 0.13013,0.520435 0.11722,1.071562 0.26459,1.5875 0.20701,0.724429 0.58674,1.392237 0.79375,2.116667 0.14737,0.515937 0.10681,1.074737 0.26458,1.5875 0.19754,0.641879 0.62069,1.20306 0.79375,1.852083 0.1832,0.687123 0.0692,1.432983 0.26458,2.116666 0.16254,0.568855 0.54894,1.048809 0.79375,1.5875 0.19654,0.43233 0.33264,0.890588 0.52917,1.322917 0.24482,0.538692 0.56621,1.0414 0.79375,1.5875 0.21453,0.514879 0.31464,1.072621 0.52917,1.5875 0.22754,0.5461 0.56621,1.0414 0.79375,1.5875 0.21452,0.514879 0.27972,1.088496 0.52916,1.5875 0.28443,0.568854 0.63583,1.112044 1.05834,1.5875 0.29297,0.329671 0.72646,0.503237 1.05833,0.79375 0.37547,0.328612 0.68286,0.729721 1.05833,1.058333 0.33187,0.290513 0.77134,0.459052 1.05834,0.79375 0.25667,0.299509 0.25027,0.779463 0.52916,1.058334 0.2789,0.27887 0.72388,0.320145 1.05834,0.529166 0.37393,0.233627 0.72646,0.503238 1.05833,0.79375 0.37547,0.328613 0.70557,0.705644 1.05833,1.058334 0.1764,0.176477 0.35277,0.352689 0.52917,0.529166 0.26458,0.264584 0.4944,0.569119 0.79375,0.79375 0.0706,0.05292 0.18092,-0.02778 0.26458,0 0.18709,0.06244 0.35277,0.176477 0.52917,0.264584 0.1764,0.08811 0.41979,0.100541 0.52917,0.264583 0.0978,0.146844 -0.0789,0.371475 0,0.529167 0.0394,0.07885 0.18092,-0.02778 0.26458,0 0.18709,0.06244 0.34208,0.202141 0.52917,0.264583 0.0837,0.02778 0.1764,0 0.26458,0 0.0882,0 0.1764,0 0.26458,0 0.0882,0 0.26459,0 0.26459,0"
       style="fill:none;stroke-linecap:round;stroke-linejoin:round" />
    <path
       id="lkxcdzsopg"
       stroke-width="1.05833"
       stroke="#90468b"
       d="m 180.71761,35.297515 v 0 c 0,0 -0.52917,0.279664 -0.52917,0.529167 0,0.176477 0.35277,0 0.52917,0 0.44098,0 0.88194,0 1.32292,0 0.44098,0 0.88463,-0.04868 1.32291,0 0.36143,0.04022 0.98703,-0.09208 1.05834,0.264583 0.0865,0.432329 -0.45247,0.779198 -0.79375,1.058333 -0.64394,0.526786 -1.41679,0.873125 -2.11667,1.322917 -0.53496,0.343958 -1.04214,0.731044 -1.5875,1.058333 -0.33822,0.202936 -0.75033,0.28284 -1.05833,0.529167 -0.15399,0.123296 -0.42868,0.419894 -0.26459,0.529167 0.29353,0.195791 0.70771,-0.03889 1.05834,0 0.44696,0.04974 0.88045,0.18415 1.32291,0.264583 0.52782,0.09604 1.5875,0.264583 1.5875,0.264583"
       style="fill:none;stroke-linecap:round;stroke-linejoin:round" />
    <path
       id="lkxcdztdw7"
       stroke-width="1.05833"
       stroke="#90468b"
       d="m 192.09469,34.768348 v 0 c 0,0 -0.17901,0.02117 -0.26458,0 -0.27056,-0.06773 -0.51766,-0.22516 -0.79375,-0.264583 -0.34922,-0.05001 -0.71035,-0.05794 -1.05833,0 -0.19452,0.03254 -0.37767,0.138377 -0.52917,0.264583 -0.38327,0.319352 -0.83521,0.611981 -1.05833,1.058334 -0.15777,0.315647 -0.058,0.710406 0,1.058333 0.0324,0.194469 0.16311,0.360098 0.26458,0.529167 0.16359,0.272785 0.28086,0.595047 0.52917,0.79375 0.21778,0.174095 0.51863,0.21881 0.79375,0.264583 0.26098,0.04339 0.53276,0.04339 0.79375,0 0.27511,-0.04577 0.59653,-0.06747 0.79375,-0.264583 0.12472,-0.124619 0.15777,-0.608013 0,-0.529167 -0.28443,0.142081 -0.35277,0.529167 -0.52917,0.79375 -0.35277,0.529167 -0.7739,1.018646 -1.05833,1.5875 -0.16261,0.325173 -0.21947,0.697442 -0.26459,1.058333 -0.0438,0.350044 0.0692,0.712523 0,1.058333 -0.0243,0.122238 -0.13985,0.264584 -0.26458,0.264584 -0.12472,0 -0.18976,-0.164836 -0.26458,-0.264584 -0.19079,-0.254264 -0.36558,-0.520964 -0.52917,-0.793749 -0.10147,-0.169069 -0.12515,-0.389732 -0.26458,-0.529167 -0.0624,-0.06244 -0.20222,0.06244 -0.26459,0 -0.0624,-0.06244 0,-0.264583 0,-0.264583"
       style="fill:none;stroke-linecap:round;stroke-linejoin:round" />
    <path
       id="lkxcdzu7ql"
       stroke-width="1.05833"
       stroke="#90468b"
       d="m 200.03219,33.445432 v 0 c 0,0 -0.66553,-0.564886 -1.05833,-0.529167 -0.66892,0.06085 -1.30183,0.408517 -1.85208,0.79375 -0.36126,0.252942 -0.69808,0.627856 -0.79375,1.058333 -0.0976,0.438944 0.0635,0.92075 0.26458,1.322917 0.0882,0.176477 0.33465,0.297127 0.52917,0.264583 0.38904,-0.06482 0.74279,-0.292629 1.05833,-0.529166 0.39913,-0.299244 0.7298,-0.68289 1.05833,-1.058334 0.29038,-0.331787 0.73139,-0.621771 0.79375,-1.058333 0.045,-0.314854 -0.33837,-0.539485 -0.52916,-0.79375 -0.0748,-0.09975 -0.26459,-0.264583 -0.26459,-0.264583"
       style="fill:none;stroke-linecap:round;stroke-linejoin:round" />
    <path
       id="lkxcdzv3qp"
       stroke-width="1.05833"
       stroke="#90468b"
       d="m 187.86136,50.378765 v 0 c 0,0 0.49464,-0.734219 0.79375,-1.058334 0.76139,-0.82497 1.53855,-1.639622 2.38125,-2.38125 1.36493,-1.201208 2.8189,-2.297112 4.23333,-3.439583 0.87863,-0.709612 1.79235,-1.376892 2.64584,-2.116666 0.47127,-0.408517 1.32291,-1.322917 1.32291,-1.322917"
       style="fill:none;stroke-linecap:round;stroke-linejoin:round" />
    <path
       id="lkxcdzvqqr"
       stroke-width="1.05833"
       stroke="#90468b"
       d="m 197.12178,47.203765 v 0 c 0,0 -0.18571,0.03942 -0.26459,0 -0.11154,-0.05583 -0.13985,-0.264584 -0.26458,-0.264584 -0.2789,0 -0.55459,0.12118 -0.79375,0.264584 -0.21391,0.128323 -0.35277,0.352689 -0.52917,0.529166 -0.17639,0.176478 -0.35276,0.35269 -0.52916,0.529167 -0.0882,0.08811 -0.26459,0.139965 -0.26459,0.264583 0,0.197115 0.12515,0.389732 0.26459,0.529167 0.13943,0.139435 0.38973,0.125148 0.52916,0.264583 0.13944,0.139436 0.1764,0.35269 0.26459,0.529167 0.0882,0.176477 0.21674,0.337873 0.26458,0.529167 0.0428,0.171185 -0.10583,0.388143 0,0.529166 0.19079,0.254265 0.4985,0.411163 0.79375,0.529167 0.16378,0.06562 0.36539,0.06562 0.52917,0 0.29525,-0.118004 0.50932,-0.387085 0.79375,-0.529167 0.0789,-0.03942 0.30403,-0.07885 0.26458,0 -0.11155,0.223044 -0.35277,0.35269 -0.52917,0.529167 -0.26458,0.264583 -0.60811,0.468842 -0.79375,0.79375 -0.18041,0.315648 -0.16467,0.708819 -0.26458,1.058333 -0.0766,0.268288 -0.1211,0.554567 -0.26458,0.79375 -0.12835,0.213784 -0.40082,0.315384 -0.52917,0.529167 -0.14348,0.239183 -0.10988,0.56171 -0.26458,0.79375 -0.0489,0.07329 -0.1764,0 -0.26459,0 -0.17639,0 -0.37139,0.07885 -0.52916,0 -0.0789,-0.03942 0.0279,-0.180975 0,-0.264583 -0.0624,-0.187061 -0.20222,-0.342107 -0.26459,-0.529167 -0.0279,-0.08361 0.0394,-0.185737 0,-0.264583 -0.0558,-0.111654 -0.17639,-0.176477 -0.26458,-0.264584 -0.0882,-0.08811 -0.26458,-0.264583 -0.26458,-0.264583"
       style="fill:none;stroke-linecap:round;stroke-linejoin:round" />
    <path
       id="lkxcdzwu5a"
       stroke-width="1.05833"
       stroke="#90468b"
       d="m 204.79469,48.262098 v 0 c 0,0 0.0882,-0.264583 0,-0.264583 -0.36364,0 -0.75578,0.06297 -1.05833,0.264583 -0.5189,0.34581 -0.92009,0.846931 -1.32292,1.322917 -0.56967,0.673364 -1.19308,1.327943 -1.5875,2.116666 -0.23992,0.479955 -0.26458,1.050925 -0.26458,1.5875 0,0.449792 -0.0534,1.004888 0.26458,1.322917 0.39442,0.394494 1.04299,0.408252 1.5875,0.529167 0.25829,0.05741 0.56404,0.131233 0.79375,0 0.43318,-0.24765 0.80696,-0.627327 1.05834,-1.058334 0.37967,-0.650875 0.58674,-1.392237 0.79375,-2.116666 0.14737,-0.515938 0.26458,-1.050925 0.26458,-1.5875 0,-0.449792 -0.15552,-0.886619 -0.26458,-1.322917 -0.0677,-0.270669 -0.26459,-0.79375 -0.26459,-0.79375"
       style="fill:none;stroke-linecap:round;stroke-linejoin:round" />
    <path
       id="lkxcdzxi3r"
       stroke-width="1.05833"
       stroke="#90468b"
       d="m 211.14469,47.997515 v 0 c 0,0 0.0624,-0.202142 0,-0.264584 -0.0624,-0.06244 -0.17809,-0.01852 -0.26458,0 -0.35658,0.07144 -0.76242,0.05318 -1.05833,0.264584 -0.35883,0.256381 -0.65432,0.640027 -0.79375,1.058333 -0.13944,0.418306 -0.28231,0.98425 0,1.322917 0.28789,0.345546 0.8732,0.264583 1.32291,0.264583 0.44972,0 0.9298,-0.0463 1.32292,-0.264583 0.43611,-0.242359 0.85572,-0.602457 1.05833,-1.058334 0.1791,-0.40296 0.10695,-0.895085 0,-1.322916 -0.0771,-0.308504 -0.38695,-0.509323 -0.52916,-0.79375 -0.0395,-0.07885 0,-0.264584 0,-0.264584"
       style="fill:none;stroke-linecap:round;stroke-linejoin:round" />
  </g>
</svg>
