<?xml version="1.0" encoding="UTF-8" standalone="no"?>
<!-- Created with Inkscape (http://www.inkscape.org/) -->

<svg
   width="22.583128mm"
   height="13.228396mm"
   viewBox="0 0 22.583128 13.228396"
   version="1.1"
   id="svg5482"
   inkscape:version="1.1.1 (3bf5ae0d25, 2021-09-20)"
   sodipodi:docname="integrating-time.svg"
   xmlns:inkscape="http://www.inkscape.org/namespaces/inkscape"
   xmlns:sodipodi="http://sodipodi.sourceforge.net/DTD/sodipodi-0.dtd"
   xmlns="http://www.w3.org/2000/svg"
   xmlns:svg="http://www.w3.org/2000/svg">
  <sodipodi:namedview
     id="namedview5484"
     pagecolor="#ffffff"
     bordercolor="#666666"
     borderopacity="1.0"
     inkscape:pageshadow="2"
     inkscape:pageopacity="0.0"
     inkscape:pagecheckerboard="0"
     inkscape:document-units="mm"
     showgrid="false"
     fit-margin-top="0"
     fit-margin-left="0"
     fit-margin-right="0"
     fit-margin-bottom="0"
     inkscape:zoom="6.2217172"
     inkscape:cx="51.111292"
     inkscape:cy="28.850556"
     inkscape:window-width="1920"
     inkscape:window-height="1147"
     inkscape:window-x="1920"
     inkscape:window-y="28"
     inkscape:window-maximized="1"
     inkscape:current-layer="layer1">
    <inkscape:grid
       type="xygrid"
       id="grid5543"
       originx="-50.270834"
       originy="-138.42164" />
  </sodipodi:namedview>
  <defs
     id="defs5479">
    <inkscape:path-effect
       effect="spiro"
       id="path-effect10843"
       is_visible="true"
       lpeversion="1" />
    <inkscape:path-effect
       effect="simplify"
       id="path-effect10841"
       is_visible="true"
       lpeversion="1"
       steps="1"
       threshold="0.0001"
       smooth_angles="360"
       helper_size="0"
       simplify_individual_paths="false"
       simplify_just_coalesce="false" />
    <inkscape:path-effect
       effect="spiro"
       id="path-effect6122"
       is_visible="true"
       lpeversion="1" />
    <inkscape:path-effect
       effect="simplify"
       id="path-effect6120"
       is_visible="true"
       lpeversion="1"
       steps="1"
       threshold="0.0001"
       smooth_angles="360"
       helper_size="0"
       simplify_individual_paths="false"
       simplify_just_coalesce="false" />
    <inkscape:path-effect
       effect="spiro"
       id="path-effect6116"
       is_visible="true"
       lpeversion="1" />
    <inkscape:path-effect
       effect="simplify"
       id="path-effect6114"
       is_visible="true"
       lpeversion="1"
       steps="1"
       threshold="0.0001"
       smooth_angles="360"
       helper_size="0"
       simplify_individual_paths="false"
       simplify_just_coalesce="false" />
    <inkscape:path-effect
       effect="spiro"
       id="path-effect6110"
       is_visible="true"
       lpeversion="1" />
    <inkscape:path-effect
       effect="simplify"
       id="path-effect6108"
       is_visible="true"
       lpeversion="1"
       steps="1"
       threshold="0.0001"
       smooth_angles="360"
       helper_size="0"
       simplify_individual_paths="false"
       simplify_just_coalesce="false" />
    <inkscape:path-effect
       effect="simplify"
       id="path-effect6102"
       is_visible="true"
       lpeversion="1"
       steps="1"
       threshold="0.0001"
       smooth_angles="360"
       helper_size="0"
       simplify_individual_paths="false"
       simplify_just_coalesce="false" />
    <inkscape:path-effect
       effect="simplify"
       id="path-effect6094"
       is_visible="true"
       lpeversion="1"
       steps="1"
       threshold="0.0001"
       smooth_angles="360"
       helper_size="0"
       simplify_individual_paths="false"
       simplify_just_coalesce="false" />
    <inkscape:path-effect
       effect="simplify"
       id="path-effect6088"
       is_visible="true"
       lpeversion="1"
       steps="1"
       threshold="0.0001"
       smooth_angles="360"
       helper_size="0"
       simplify_individual_paths="false"
       simplify_just_coalesce="false" />
    <inkscape:path-effect
       effect="spiro"
       id="path-effect5890"
       is_visible="true"
       lpeversion="1" />
    <inkscape:path-effect
       effect="simplify"
       id="path-effect5886"
       is_visible="true"
       lpeversion="1"
       steps="1"
       threshold="0.0001"
       smooth_angles="360"
       helper_size="0"
       simplify_individual_paths="false"
       simplify_just_coalesce="false" />
    <inkscape:path-effect
       effect="spiro"
       id="path-effect5854"
       is_visible="true"
       lpeversion="1" />
    <inkscape:path-effect
       effect="simplify"
       id="path-effect5850"
       is_visible="true"
       lpeversion="1"
       steps="1"
       threshold="0.0001"
       smooth_angles="360"
       helper_size="0"
       simplify_individual_paths="false"
       simplify_just_coalesce="false" />
    <inkscape:path-effect
       effect="spiro"
       id="path-effect5738"
       is_visible="true"
       lpeversion="1" />
    <inkscape:path-effect
       effect="simplify"
       id="path-effect5734"
       is_visible="true"
       lpeversion="1"
       steps="1"
       threshold="0.0001"
       smooth_angles="360"
       helper_size="0"
       simplify_individual_paths="false"
       simplify_just_coalesce="false" />
    <inkscape:path-effect
       effect="spiro"
       id="path-effect5703"
       is_visible="true"
       lpeversion="1" />
    <inkscape:path-effect
       effect="simplify"
       id="path-effect5701"
       is_visible="true"
       lpeversion="1"
       steps="1"
       threshold="0.0001"
       smooth_angles="360"
       helper_size="0"
       simplify_individual_paths="false"
       simplify_just_coalesce="false" />
    <inkscape:path-effect
       effect="spiro"
       id="path-effect5584"
       is_visible="true"
       lpeversion="1" />
    <inkscape:path-effect
       effect="simplify"
       id="path-effect5582"
       is_visible="true"
       lpeversion="1"
       steps="1"
       threshold="0.0001"
       smooth_angles="360"
       helper_size="0"
       simplify_individual_paths="false"
       simplify_just_coalesce="false" />
  </defs>
  <g
     inkscape:label="Layer 1"
     inkscape:groupmode="layer"
     id="layer1"
     transform="translate(-50.270833,-138.42164)">
    <path
       style="fill:none;stroke:#000000;stroke-width:0.264583px;stroke-linecap:butt;stroke-linejoin:miter;stroke-opacity:1"
       d="m 52.916666,140.22916 v 5.29167"
       id="path5699"
       inkscape:path-effect="#path-effect5701;#path-effect5703"
       inkscape:original-d="m 52.916666,140.22916 v 5.29167" />
    <path
       style="fill:none;stroke:#000000;stroke-width:0.264583px;stroke-linecap:butt;stroke-linejoin:miter;stroke-opacity:1"
       d="m 58.208333,140.22916 v 5.29167"
       id="path5699-3"
       inkscape:path-effect="#path-effect5734;#path-effect5738"
       inkscape:original-d="m 58.208333,140.22916 v 5.29167" />
    <path
       style="fill:none;stroke:#000000;stroke-width:0.264583px;stroke-linecap:butt;stroke-linejoin:miter;stroke-opacity:1"
       d="m 63.5,140.22916 v 5.29167"
       id="path5699-3-6"
       inkscape:path-effect="#path-effect5850;#path-effect5854"
       inkscape:original-d="m 63.5,140.22916 v 5.29167" />
    <path
       style="fill:none;stroke:#000000;stroke-width:0.264583px;stroke-linecap:butt;stroke-linejoin:miter;stroke-opacity:1"
       d="m 68.791667,140.22916 v 5.29167"
       id="path5699-3-6-7"
       inkscape:path-effect="#path-effect5886;#path-effect5890"
       inkscape:original-d="m 68.791667,140.22916 v 5.29167" />
    <path
       style="fill:none;stroke:#000000;stroke-width:0.264583px;stroke-linecap:butt;stroke-linejoin:miter;stroke-opacity:1"
       d="M 50.270833,142.875 H 72.760416"
       id="path6106"
       inkscape:path-effect="#path-effect6108;#path-effect6110"
       inkscape:original-d="M 50.270833,142.875 H 72.760416" />
    <path
       style="fill:none;stroke:#000000;stroke-width:0.264583px;stroke-linecap:butt;stroke-linejoin:miter;stroke-opacity:1"
       d="m 71.437499,141.55208 1.322917,1.32292"
       id="path6112"
       inkscape:path-effect="#path-effect6114;#path-effect6116"
       inkscape:original-d="m 71.437499,141.55208 1.322917,1.32292" />
    <path
       style="fill:none;stroke:#000000;stroke-width:0.264583px;stroke-linecap:butt;stroke-linejoin:miter;stroke-opacity:1"
       d="M 71.437499,144.19791 72.760416,142.875"
       id="path6118"
       inkscape:path-effect="#path-effect6120;#path-effect6122"
       inkscape:original-d="M 71.437499,144.19791 72.760416,142.875" />
    <text
       xml:space="preserve"
       style="font-style:normal;font-weight:normal;font-size:3.76633px;line-height:1.25;font-family:sans-serif;letter-spacing:0px;word-spacing:0px;fill:#000000;fill-opacity:1;stroke:none;stroke-width:0.0941585"
       x="53.552593"
       y="141.16731"
       id="text7116"><tspan
         sodipodi:role="line"
         id="tspan7114"
         style="stroke-width:0.0941585"
         x="53.552593"
         y="141.16731">Δt</tspan></text>
    <text
       xml:space="preserve"
       style="font-style:normal;font-weight:normal;font-size:3.76633px;line-height:1.25;font-family:sans-serif;letter-spacing:0px;word-spacing:0px;fill:#000000;fill-opacity:1;stroke:none;stroke-width:0.0941585"
       x="58.807095"
       y="141.20654"
       id="text7116-5"><tspan
         sodipodi:role="line"
         id="tspan7114-3"
         style="stroke-width:0.0941585"
         x="58.807095"
         y="141.20654">Δt</tspan></text>
    <text
       xml:space="preserve"
       style="font-style:normal;font-weight:normal;font-size:3.76633px;line-height:1.25;font-family:sans-serif;letter-spacing:0px;word-spacing:0px;fill:#000000;fill-opacity:1;stroke:none;stroke-width:0.0941585"
       x="64.275238"
       y="141.26802"
       id="text7116-5-5"><tspan
         sodipodi:role="line"
         id="tspan7114-3-6"
         style="stroke-width:0.0941585"
         x="64.275238"
         y="141.26802">Δt</tspan></text>
    <text
       xml:space="preserve"
       style="font-style:normal;font-weight:normal;font-size:3.76633px;line-height:1.25;font-family:sans-serif;letter-spacing:0px;word-spacing:0px;fill:#000000;fill-opacity:1;stroke:none;stroke-width:0.0941585"
       x="70.793022"
       y="147.8089"
       id="text7116-5-5-1"><tspan
         sodipodi:role="line"
         id="tspan7114-3-6-2"
         style="stroke-width:0.0941585"
         x="70.793022"
         y="147.8089">t</tspan></text>
    <text
       xml:space="preserve"
       style="font-style:normal;font-weight:normal;font-size:3.76633px;line-height:1.25;font-family:sans-serif;letter-spacing:0px;word-spacing:0px;fill:#000000;fill-opacity:1;stroke:none;stroke-width:0.0941585"
       x="60.487591"
       y="151.65004"
       id="text7116-5-5-1-7"><tspan
         sodipodi:role="line"
         id="tspan7114-3-6-2-0"
         style="stroke-width:0.0941585"
         x="60.487591"
         y="151.65004">t</tspan></text>
    <path
       style="fill:none;stroke:#000000;stroke-width:0.264583px;stroke-linecap:butt;stroke-linejoin:miter;stroke-opacity:1"
       d="m 52.916666,145.52083 c 0.06602,0.1227 0.137791,0.2423 0.215011,0.35827 0.0338,0.0508 0.06886,0.10121 0.09315,0.15715 0.02467,0.0568 0.03829,0.11929 0.07402,0.16989 0.03405,0.0482 0.085,0.0811 0.132531,0.11612 0.09962,0.0733 0.188721,0.16019 0.288797,0.23289 0.106404,0.0773 0.223977,0.1377 0.334761,0.20858 0.204713,0.13097 0.386026,0.29753 0.598362,0.41574 0.125638,0.0699 0.26047,0.12198 0.396982,0.16716 0.195563,0.0647 0.395643,0.11589 0.598402,0.15227 0.153761,0.0276 0.308923,0.0467 0.463037,0.0722 0.281405,0.0466 0.561117,0.11501 0.846324,0.1196 0.06713,0.001 0.134252,-0.001 0.201364,-0.003 0.110318,-0.003 0.220914,-0.004 0.33082,0.006 0.07467,0.007 0.148831,0.0186 0.223561,0.0247 0.08479,0.007 0.16998,0.006 0.255012,0.009 0.07614,0.002 0.152199,0.007 0.228358,0.008 0.182825,0.003 0.365511,-0.0128 0.548363,-0.0122 0.07444,2.7e-4 0.148888,0.003 0.223299,0.001 0.103406,-0.003 0.206845,-0.0155 0.310031,-0.008 0.101332,0.007 0.200817,0.0336 0.302348,0.0369 0.04514,0.001 0.09038,-0.002 0.135476,8.6e-4 0.04489,0.002 0.08933,0.0103 0.13419,0.0132 0.121172,0.008 0.243644,-0.0211 0.363641,-0.003 0.09616,0.0149 0.185125,0.0593 0.279521,0.0829 0.07489,0.0187 0.154732,0.0248 0.221821,0.063 0.033,0.0188 0.06141,0.0445 0.09271,0.066 0.03573,0.0245 0.07521,0.0435 0.109516,0.0699 0.03706,0.0286 0.06716,0.0653 0.09318,0.10424 0.0382,0.0571 0.06816,0.11926 0.101945,0.1791 0.01924,0.0341 0.03999,0.068 0.04996,0.10584 0.0036,0.0136 0.0057,0.0276 0.0064,0.0417 l 0.0065,7e-5 c 0.0011,-0.008 0.0028,-0.0153 0.0052,-0.0227 0.0069,-0.0213 0.01923,-0.0406 0.03384,-0.0576 0.01462,-0.017 0.03154,-0.0319 0.04876,-0.0462 0.02384,-0.0199 0.04837,-0.039 0.07346,-0.0573 0.03445,-0.0251 0.07004,-0.0488 0.107797,-0.0686 0.04178,-0.0219 0.08594,-0.0389 0.128227,-0.0598 0.0081,-0.004 0.01645,-0.008 0.02209,-0.0155 0.003,-0.004 0.005,-0.008 0.0073,-0.0122 0.02599,-0.0487 0.07357,-0.0829 0.124508,-0.10405 0.05094,-0.0212 0.105782,-0.0308 0.159889,-0.0416 0.08008,-0.016 0.159601,-0.0347 0.239957,-0.0492 0.05909,-0.0107 0.118623,-0.019 0.177317,-0.0317 0.07778,-0.0168 0.153787,-0.0411 0.231549,-0.058 0.13796,-0.03 0.279843,-0.0363 0.419643,-0.056 0.186346,-0.0263 0.369027,-0.0763 0.556189,-0.0959 0.107039,-0.0112 0.214871,-0.0124 0.322188,-0.0206 0.191201,-0.0145 0.379942,-0.051 0.569464,-0.0801 0.15377,-0.0237 0.308243,-0.0425 0.462897,-0.0594 0.105409,-0.0115 0.210956,-0.0222 0.315837,-0.0378 0.08411,-0.0125 0.167737,-0.0283 0.252003,-0.0397 0.108449,-0.0147 0.217741,-0.0224 0.32641,-0.0354 0.291686,-0.0349 0.577108,-0.10848 0.863805,-0.17256 0.10458,-0.0234 0.209797,-0.0456 0.310676,-0.0818 0.07001,-0.0251 0.137495,-0.0567 0.207125,-0.0828 0.129656,-0.0486 0.266408,-0.078 0.392828,-0.13448 0.09053,-0.0405 0.174559,-0.0944 0.253796,-0.154 0.05399,-0.0406 0.105975,-0.084 0.162259,-0.12141 0.02232,-0.0148 0.04536,-0.0287 0.06584,-0.046 0.03346,-0.0283 0.05895,-0.0645 0.08782,-0.0975 0.0587,-0.0669 0.131522,-0.12008 0.192444,-0.185 0.06348,-0.0676 0.113318,-0.14748 0.150631,-0.23241 0.0091,-0.0208 0.0176,-0.042 0.03036,-0.0607 0.01275,-0.0188 0.03045,-0.0351 0.05223,-0.0414 0.0059,-0.002 0.01198,-0.003 0.01787,-0.004 0.0059,-0.002 0.01169,-0.004 0.01589,-0.009 0.0021,-0.002 0.0038,-0.005 0.0047,-0.008 8.96e-4,-0.003 0.001,-0.006 1.13e-4,-0.009 -8.87e-4,-0.003 -0.0028,-0.006 -0.0054,-0.007 -0.0026,-0.002 -0.0059,-0.002 -0.0088,-0.001 -0.0023,7.1e-4 -0.0044,0.002 -0.006,0.004 -0.0016,0.002 -0.0028,0.004 -0.004,0.006 -0.0012,0.002 -0.0023,0.004 -0.0038,0.006 -0.0014,0.002 -0.0032,0.004 -0.0054,0.005 -0.0018,9.3e-4 -0.0039,0.001 -0.006,0.001 -0.0021,-1e-4 -0.0041,-7.2e-4 -0.0059,-0.002 -0.0036,-0.002 -0.0061,-0.006 -0.0071,-0.01 -9.83e-4,-0.004 -4.85e-4,-0.008 0.0011,-0.0121 0.0016,-0.004 0.0041,-0.007 0.0072,-0.01 0.0061,-0.006 0.01395,-0.009 0.02161,-0.0116 0.0077,-0.003 0.0155,-0.006 0.02162,-0.0116 0.006,-0.005 0.0099,-0.0127 0.01289,-0.0201 0.003,-0.007 0.0053,-0.0152 0.0086,-0.0225 0.006,-0.0132 0.01525,-0.0246 0.0256,-0.0347 0.01035,-0.0101 0.0218,-0.019 0.03294,-0.0282 0.01114,-0.009 0.02205,-0.0188 0.03104,-0.0302 0.009,-0.0113 0.01602,-0.0245 0.01848,-0.0387 0.0034,-0.0195 -0.002,-0.0395 6e-5,-0.0592 0.0024,-0.023 0.01456,-0.0437 0.02732,-0.063 0.01277,-0.0193 0.02663,-0.0385 0.03313,-0.0607 0.0065,-0.0222 0.0052,-0.0459 0.0025,-0.0689 -0.0027,-0.023 -0.0066,-0.046 -0.005,-0.0691 0.0019,-0.0278 0.01167,-0.0545 0.0165,-0.082 0.0012,-0.007 0.0021,-0.0136 0.0028,-0.0204 0.001,-0.01 0.0017,-0.0202 -6.99e-4,-0.03 -0.0012,-0.005 -0.0032,-0.01 -0.006,-0.0137 -0.0029,-0.004 -0.0067,-0.008 -0.01125,-0.01 -0.0069,-0.003 -0.01527,-0.004 -0.0225,-8e-4 -0.0072,0.003 -0.01331,0.008 -0.01726,0.0147 -0.004,0.007 -0.0058,0.0144 -0.0058,0.0221 0,0.008 0.0018,0.0154 0.0048,0.0225 0.006,0.0142 0.01657,0.026 0.02757,0.0368 0.011,0.0108 0.02271,0.0211 0.03192,0.0334 0.02062,0.0277 0.02678,0.0656 0.01599,0.0984"
       id="path10839"
       inkscape:path-effect="#path-effect10841;#path-effect10843"
       inkscape:original-d="m 52.916666,145.52083 c 0.06372,0.10605 0.128328,0.21157 0.191161,0.31814 0.03612,0.0613 0.07346,0.12179 0.109295,0.18322 0.04403,0.0755 0.03835,0.14241 0.102856,0.20893 0.03076,0.0317 0.06974,0.0543 0.102868,0.0836 0.09106,0.0803 0.179183,0.16663 0.282866,0.23144 0.102706,0.0642 0.208137,0.1217 0.308581,0.18964 0.24789,0.16768 0.491871,0.3843 0.765037,0.50787 0.266409,0.12051 0.56487,0.18688 0.848606,0.25072 0.147188,0.0331 0.301374,0.0443 0.450019,0.0707 0.287859,0.0511 0.581906,0.10911 0.874324,0.12536 0.06154,0.003 0.120049,-0.003 0.180006,-0.003 0.115689,0 0.23164,0.006 0.347152,0.006 0.05741,0 0.116835,0.0122 0.173583,0.0193 0.07043,0.009 0.147762,0.008 0.218577,0.01 0.09421,0.002 0.188577,0.0129 0.282874,0.0129 0.18211,0 0.364347,-0.0129 0.54645,-0.0129 0.07931,0 0.158448,0.006 0.237868,0.003 0.106659,-0.004 0.214514,-0.0118 0.321437,-0.01 0.09942,0.002 0.197104,0.025 0.295727,0.0354 0.05397,0.006 0.107114,0.002 0.160719,0.003 8.2e-5,0 0.128492,0.0129 0.128582,0.0129 0.119616,0.006 0.240229,-0.0103 0.360016,-0.003 0.09895,0.006 0.182623,0.0553 0.276439,0.0804 0.06056,0.0161 0.20683,0.0484 0.257149,0.0771 0.02185,0.0125 0.04343,0.0364 0.0643,0.0514 0.02848,0.0206 0.06202,0.0314 0.09,0.0514 0.02593,0.0185 0.08723,0.09 0.109283,0.11571 0.0465,0.0542 0.10182,0.16458 0.128574,0.23144 0.0099,0.0248 0.01921,0.0449 0.03214,0.0643 0.0031,0.005 -0.0082,0.0471 0.01286,0.0418 0.0042,-0.001 -0.0019,-0.009 0,-0.0129 0.0096,-0.0215 0.05585,-0.0837 0.07071,-0.0996 0.02159,-0.0231 0.04877,-0.0258 0.07073,-0.045 0.01323,-0.0116 0.01926,-0.0298 0.03214,-0.0418 0.03932,-0.0365 0.148799,-0.0721 0.19929,-0.0996 0.106145,-0.0579 -0.0079,1e-4 0.07715,-0.0579 0.08734,-0.0596 0.188805,-0.10649 0.289293,-0.13822 0.09899,-0.0313 0.194985,-0.0355 0.295728,-0.0514 0.09087,-0.0143 0.180303,-0.0478 0.270012,-0.0675 0.145447,-0.032 0.296998,-0.0349 0.443593,-0.0611 0.164573,-0.0294 0.329062,-0.0732 0.495017,-0.0932 0.115162,-0.0139 0.231793,-0.0129 0.347159,-0.0225 0.204611,-0.017 0.40684,-0.0606 0.610738,-0.0836 0.137589,-0.0155 0.273915,-0.0394 0.411451,-0.0546 0.103031,-0.0115 0.205809,-0.0177 0.308581,-0.0321 0.09038,-0.0127 0.179715,-0.0326 0.270012,-0.045 0.108916,-0.015 0.218819,-0.0221 0.327872,-0.0354 0.308536,-0.0374 0.612571,-0.0991 0.912892,-0.17679 0.08471,-0.0219 0.173458,-0.0356 0.257159,-0.0611 0.08346,-0.0254 0.161999,-0.0672 0.244293,-0.0964 0.11426,-0.0406 0.23427,-0.0689 0.347151,-0.11251 0.09068,-0.035 0.190082,-0.0861 0.270013,-0.14143 0.0747,-0.0517 0.14255,-0.11421 0.218588,-0.16393 0.01402,-0.009 0.03158,-0.0124 0.045,-0.0225 0.02,-0.015 0.03284,-0.0379 0.05143,-0.0546 0.03229,-0.0291 0.05413,-0.0619 0.08358,-0.0932 0.04981,-0.0529 0.113144,-0.0914 0.160716,-0.14786 0.05943,-0.0706 0.08697,-0.16184 0.147865,-0.23143 0.02352,-0.0269 0.05078,-0.0461 0.07071,-0.0771 0.110217,-0.17145 -0.0028,0.006 0.03857,-0.0836 0.007,-0.0152 0.02384,-0.0241 0.03214,-0.0386 0.0039,-0.007 0.0019,-0.0162 0.0064,-0.0225 0.03956,-0.0554 0.08799,-0.086 0.122148,-0.15429 0.0075,-0.015 -0.0088,-0.041 -0.0064,-0.0514 0.0079,-0.0353 0.0513,-0.0636 0.05785,-0.0996 0.0094,-0.0516 -0.0051,-0.10681 0,-0.15751 -0.01106,-0.0273 0.01672,-0.0442 0.01929,-0.0675 0.0011,-0.01 -0.0064,-0.019 -0.0064,-0.0289 0,-0.003 0.0071,-0.003 0.0064,-0.006 -0.004,-0.0179 -0.02201,-0.0695 -0.01929,-0.0514 0.01135,0.0751 0.02402,0.15006 0.03605,0.22509" />
  </g>
</svg>
